<?xml version="1.0" encoding="UTF-8" standalone="no"?>
<svg
   xmlns:dc="http://purl.org/dc/elements/1.1/"
   xmlns:cc="http://creativecommons.org/ns#"
   xmlns:rdf="http://www.w3.org/1999/02/22-rdf-syntax-ns#"
   xmlns:svg="http://www.w3.org/2000/svg"
   xmlns="http://www.w3.org/2000/svg"
   xmlns:sodipodi="http://sodipodi.sourceforge.net/DTD/sodipodi-0.dtd"
   xmlns:inkscape="http://www.inkscape.org/namespaces/inkscape"
   inkscape:version="1.0 (4035a4f, 2020-05-01)"
   sodipodi:docname="storage-stack.svg"
   version="1.1"
   viewBox="0 0 595.276 566.16"
   height="199.729mm"
   width="210mm"
   id="svg4203">
  <metadata
     id="metadata407">
    <rdf:RDF>
      <cc:Work
         rdf:about="">
        <dc:format>image/svg+xml</dc:format>
        <dc:type
           rdf:resource="http://purl.org/dc/dcmitype/StillImage" />
        <dc:title></dc:title>
        <dc:subject>
          <rdf:Bag>
            <rdf:li>storageoverview-lecture-mediaobject-d1e17</rdf:li>
            <rdf:li>storageoverview-lecture-mediaobject-d1e180</rdf:li>
            <rdf:li>storageoverv</rdf:li>
          </rdf:Bag>
        </dc:subject>
      </cc:Work>
    </rdf:RDF>
  </metadata>
  <sodipodi:namedview
     inkscape:current-layer="svg4203"
     inkscape:window-maximized="0"
     inkscape:window-y="25"
     inkscape:window-x="0"
     inkscape:cy="377.44064"
     inkscape:cx="396.85039"
     inkscape:zoom="0.63122024"
     showgrid="false"
     id="namedview405"
     inkscape:window-height="480"
     inkscape:window-width="987"
     inkscape:pageshadow="2"
     inkscape:pageopacity="0"
     guidetolerance="10"
     gridtolerance="10"
     objecttolerance="10"
     borderopacity="1"
     bordercolor="#666666"
     pagecolor="#ffffff" />
  <defs
     id="defs12">
    <style
       id="style10">
      .cls-1, .cls-4, .cls-8 {
        fill: #fff;
      }

      .cls-1, .cls-2 {
        stroke: #06c;
      }

      .cls-1, .cls-2, .cls-5, .cls-6 {
        stroke-miterlimit: 10;
      }

      .cls-2 {
        fill: none;
      }

      .cls-3 {
        fill: #a1c2e7;
      }

      .cls-5, .cls-6 {
        stroke: #fff;
      }

      .cls-6 {
        stroke-width: 0.75px;
      }

      .cls-7 {
        fill: #e6e6e6;
      }

      .cls-8 {
        stroke: #000;
        stroke-linecap: round;
        stroke-linejoin: round;
      }
    </style>
  </defs>
  <g
     id="g402">
    <rect
       id="rect14"
       height="75.773"
       width="423.344"
       y="27.44"
       x="85.228"
       class="cls-1" />
    <line
       id="line16"
       y2="247.841"
       x2="187.862"
       y1="192.629"
       x1="187.862"
       class="cls-2" />
    <line
       id="line18"
       y2="462.948"
       x2="171.181"
       y1="321.639"
       x1="171.181"
       class="cls-2" />
    <line
       id="line20"
       y2="377.215"
       x2="273.399"
       y1="321.639"
       x1="273.399"
       class="cls-2" />
    <line
       id="line22"
       y2="462.047"
       x2="407.414"
       y1="192.629"
       x1="407.414"
       class="cls-2" />
    <rect
       id="rect24"
       height="75.773"
       width="423.344"
       y="116.856"
       x="85.228"
       class="cls-3" />
    <rect
       id="rect26"
       height="31.467"
       width="190.805"
       y="149.369"
       x="304.78"
       class="cls-4" />
    <rect
       id="rect28"
       height="31.467"
       width="190.805"
       y="149.369"
       x="99.69"
       class="cls-4" />
    <g
       id="g54">
      <path
         id="path30"
         d="M263.109,78.288h2.35l3.226,8.4h-2.23l-.7-2h-3.07l-.708,2h-2.147Zm2.1,4.8-.971-2.783-.984,2.783Z" />
      <path
         id="path32"
         d="M269.47,80.5h1.918v.863a2.286,2.286,0,0,1,1.836-.9,2.948,2.948,0,0,1,2.734,3.142,2.984,2.984,0,0,1-2.878,3.118A2.159,2.159,0,0,1,271.413,86v3.261H269.47Zm1.943,2.075v2.062a1.592,1.592,0,0,0,1.163.492,1.53,1.53,0,0,0,0-3.058A1.5,1.5,0,0,0,271.413,82.57Z" />
      <path
         id="path34"
         d="M277.2,80.5h1.918v.863a2.285,2.285,0,0,1,1.835-.9,2.948,2.948,0,0,1,2.735,3.142,2.984,2.984,0,0,1-2.878,3.118A2.159,2.159,0,0,1,279.141,86v3.261H277.2Zm1.943,2.075v2.062a1.592,1.592,0,0,0,1.163.492,1.53,1.53,0,0,0,0-3.058A1.5,1.5,0,0,0,279.141,82.57Z" />
      <path
         id="path36"
         d="M286.869,86.683h-1.943V78.108l1.943-.3Z" />
      <path
         id="path38"
         d="M288.262,78.456a1.1,1.1,0,0,1,2.195,0,1.1,1.1,0,0,1-2.195,0Zm2.063,8.227h-1.943V80.5h1.943Z" />
      <path
         id="path40"
         d="M296.131,84.512l1.152,1.14a3.256,3.256,0,0,1-2.519,1.151,3.2,3.2,0,0,1,0-6.4,3.35,3.35,0,0,1,2.579,1.139l-1.188,1.187a1.618,1.618,0,0,0-1.319-.672,1.546,1.546,0,0,0,.048,3.071A1.5,1.5,0,0,0,296.131,84.512Z" />
      <path
         id="path42"
         d="M298.018,84.908c0-1.139.887-1.8,2.411-1.8a4.021,4.021,0,0,1,1.438.288v-.5c0-.6-.4-.9-1.223-.9a4.627,4.627,0,0,0-1.739.431l-.671-1.355a6.859,6.859,0,0,1,2.842-.671c1.715,0,2.71.852,2.71,2.326v3.958h-1.919v-.54a2.462,2.462,0,0,1-1.715.636A1.925,1.925,0,0,1,298.018,84.908Zm2.734.588a2.108,2.108,0,0,0,1.115-.312v-.792a4.631,4.631,0,0,0-1.067-.132c-.635,0-1,.216-1,.613S300.152,85.5,300.752,85.5Z" />
      <path
         id="path44"
         d="M305.888,81.994h-1.2V80.5h1.2V78.78l1.944-.4V80.5h1.654v1.5h-1.654v2.4c0,.552.216.744.815.744a2.6,2.6,0,0,0,.791-.132v1.571a5.394,5.394,0,0,1-1.331.192c-1.463,0-2.219-.672-2.219-1.991Z" />
      <path
         id="path46"
         d="M310.449,78.456a1.1,1.1,0,0,1,2.195,0,1.1,1.1,0,0,1-2.195,0Zm2.063,8.227h-1.943V80.5h1.943Z" />
      <path
         id="path48"
         d="M316.975,80.4a3.2,3.2,0,1,1-3.226,3.2A3.151,3.151,0,0,1,316.975,80.4Zm1.344,3.2a1.357,1.357,0,1,0-2.675,0,1.353,1.353,0,1,0,2.675,0Z" />
      <path
         id="path50"
         d="M321.453,80.5H323.4V81.5a2.285,2.285,0,0,1,1.954-1.1,2,2,0,0,1,2.051,2.11v4.174h-1.942v-3.61a1.031,1.031,0,0,0-1.031-1.152,1.251,1.251,0,0,0-1.032.516v4.246h-1.943Z" />
      <path
         id="path52"
         d="M329.217,84.752a4,4,0,0,0,1.991.624c.552,0,.887-.192.887-.5,0-.241-.18-.372-.576-.445l-1.187-.216c-1.2-.227-1.823-.839-1.823-1.8,0-1.272.971-2.028,2.59-2.028a4.985,4.985,0,0,1,2.519.708l-.888,1.236a3.487,3.487,0,0,0-1.774-.528c-.468,0-.744.156-.744.432,0,.252.156.359.635.443l1.164.216c1.223.228,1.871.852,1.859,1.787.012,1.211-1.14,2.123-2.662,2.123a5.049,5.049,0,0,1-2.843-.756Z" />
    </g>
    <g
       id="g62">
      <path
         id="path56"
         d="M284.692,128.828h2.231l2.218,6.249,2.255-6.249h2.147l-3.274,8.4h-2.351Z" />
      <path
         id="path58"
         d="M294.507,128.828H300.9v1.728H296.57v1.654h3.022v1.68H296.57v3.334h-2.063Z" />
      <path
         id="path60"
         d="M302.81,134.549a4.614,4.614,0,0,0,2.723,1.115c.888,0,1.428-.359,1.428-.875,0-.492-.288-.72-1.1-.876l-1.787-.311a2.226,2.226,0,0,1-2.063-2.244c0-1.63,1.248-2.65,3.335-2.65a5.7,5.7,0,0,1,3.441,1.1l-1.043,1.5a4.009,4.009,0,0,0-2.507-.923c-.815,0-1.283.336-1.283.791,0,.42.276.647.947.756l1.68.288c1.57.275,2.4,1.091,2.4,2.374,0,1.632-1.391,2.747-3.586,2.747a5.956,5.956,0,0,1-3.633-1.272Z" />
    </g>
    <g
       id="g82">
      <path
         id="path64"
         d="M163.893,160.585h3.754a2.6,2.6,0,1,1,0,5.193h-2.315v3.2h-1.439Zm1.439,1.211V164.6h2.087a1.413,1.413,0,1,0,.012-2.806Z" />
      <path
         id="path66"
         d="M171.345,167.253c0-1.08.875-1.763,2.291-1.763a3.711,3.711,0,0,1,1.619.372v-.66c0-.791-.456-1.2-1.379-1.2a4.171,4.171,0,0,0-1.751.468l-.48-.983a5.765,5.765,0,0,1,2.494-.611c1.56,0,2.459.791,2.459,2.182v3.922h-1.343v-.611a2.511,2.511,0,0,1-1.787.707A1.9,1.9,0,0,1,171.345,167.253Zm2.5.875a2.141,2.141,0,0,0,1.415-.492v-.983a3.123,3.123,0,0,0-1.391-.287c-.768,0-1.248.336-1.248.863C172.616,167.781,173.1,168.128,173.84,168.128Z" />
      <path
         id="path68"
         d="M177.969,165.969a2.9,2.9,0,0,1,2.806-3.046,2.259,2.259,0,0,1,1.763.816v-.768h1.344v6.213c0,1.547-1.008,2.4-2.831,2.4a5.234,5.234,0,0,1-2.411-.576l.48-1.007a4.1,4.1,0,0,0,1.871.515c1.007,0,1.535-.456,1.535-1.331v-1.019a2.332,2.332,0,0,1-1.835.851A2.88,2.88,0,0,1,177.969,165.969Zm3.13,1.919a1.8,1.8,0,0,0,1.427-.659V164.71a1.86,1.86,0,0,0-1.427-.647,1.793,1.793,0,0,0-1.787,1.906A1.816,1.816,0,0,0,181.1,167.888Z" />
      <path
         id="path70"
         d="M188.335,169.1a3.054,3.054,0,0,1-3.058-3.118,2.958,2.958,0,0,1,2.926-3.106,2.884,2.884,0,0,1,2.843,3.093v.336h-4.438a1.836,1.836,0,0,0,1.8,1.644,1.951,1.951,0,0,0,1.427-.564l.888.827A3.473,3.473,0,0,1,188.335,169.1Zm-1.7-3.622h3.13a1.643,1.643,0,0,0-1.571-1.5A1.613,1.613,0,0,0,186.632,165.478Z" />
      <path
         id="path72"
         d="M199.422,167.241l.816.815a3.123,3.123,0,0,1-2.351,1.044,3.107,3.107,0,0,1,0-6.213,3.238,3.238,0,0,1,2.4,1.008l-.839.875a1.984,1.984,0,0,0-1.511-.707,1.928,1.928,0,0,0,.036,3.838A1.848,1.848,0,0,0,199.422,167.241Z" />
      <path
         id="path74"
         d="M201.1,167.253c0-1.08.876-1.763,2.291-1.763a3.711,3.711,0,0,1,1.619.372v-.66c0-.791-.456-1.2-1.379-1.2a4.167,4.167,0,0,0-1.751.468l-.48-.983a5.766,5.766,0,0,1,2.5-.611c1.559,0,2.459.791,2.459,2.182v3.922h-1.344v-.611a2.511,2.511,0,0,1-1.787.707A1.9,1.9,0,0,1,201.1,167.253Zm2.495.875a2.14,2.14,0,0,0,1.415-.492v-.983a3.12,3.12,0,0,0-1.391-.287c-.768,0-1.247.336-1.247.863C202.376,167.781,202.855,168.128,203.6,168.128Z" />
      <path
         id="path76"
         d="M212.3,167.241l.816.815a3.123,3.123,0,0,1-2.351,1.044,3.107,3.107,0,0,1,0-6.213,3.238,3.238,0,0,1,2.4,1.008l-.839.875a1.984,1.984,0,0,0-1.511-.707,1.928,1.928,0,0,0,.036,3.838A1.848,1.848,0,0,0,212.3,167.241Z" />
      <path
         id="path78"
         d="M214.28,160.405l1.356-.228v3.778a2.18,2.18,0,0,1,1.906-1.079,2.021,2.021,0,0,1,2.075,2.146v3.958h-1.355v-3.574a1.3,1.3,0,0,0-1.319-1.44,1.538,1.538,0,0,0-1.307.72v4.294H214.28Z" />
      <path
         id="path80"
         d="M224.046,169.1a3.054,3.054,0,0,1-3.058-3.118,2.958,2.958,0,0,1,2.926-3.106,2.883,2.883,0,0,1,2.843,3.093v.336H222.32a1.834,1.834,0,0,0,1.8,1.644,1.953,1.953,0,0,0,1.428-.564l.887.827A3.474,3.474,0,0,1,224.046,169.1Zm-1.7-3.622h3.13a1.645,1.645,0,0,0-1.571-1.5A1.612,1.612,0,0,0,222.344,165.478Z" />
    </g>
    <rect
       id="rect84"
       height="31.467"
       width="205.267"
       y="204.075"
       x="85.228"
       class="cls-3" />
    <g
       id="g110">
      <path
         id="path86"
         d="M146.767,215.291h3.071a4.2,4.2,0,1,1,0,8.4h-3.071Zm1.44,1.247v5.9h1.667a2.964,2.964,0,0,0,0-5.9Z" />
      <path
         id="path88"
         d="M158.286,223.807a3.055,3.055,0,0,1-3.059-3.118,2.96,2.96,0,0,1,2.927-3.107A2.884,2.884,0,0,1,161,220.676v.336h-4.437a1.834,1.834,0,0,0,1.8,1.643,1.954,1.954,0,0,0,1.427-.563l.888.827A3.481,3.481,0,0,1,158.286,223.807Zm-1.7-3.622h3.13a1.644,1.644,0,0,0-1.571-1.5A1.613,1.613,0,0,0,156.583,220.185Z" />
      <path
         id="path90"
         d="M161.491,217.678h1.476l1.667,4.389,1.667-4.389h1.427l-2.47,6.009H163.95Z" />
      <path
         id="path92"
         d="M168.535,215.627a.846.846,0,0,1,1.691,0,.846.846,0,0,1-1.691,0Zm1.523,8.06H168.7v-6.009h1.355Z" />
      <path
         id="path94"
         d="M176.021,221.947l.816.816a3.126,3.126,0,0,1-2.351,1.044,3.107,3.107,0,0,1,0-6.213,3.238,3.238,0,0,1,2.4,1.008l-.84.875a1.984,1.984,0,0,0-1.511-.707,1.927,1.927,0,0,0,.036,3.837A1.845,1.845,0,0,0,176.021,221.947Z" />
      <path
         id="path96"
         d="M180.606,223.807a3.055,3.055,0,0,1-3.059-3.118,2.96,2.96,0,0,1,2.927-3.107,2.884,2.884,0,0,1,2.842,3.094v.336h-4.437a1.834,1.834,0,0,0,1.8,1.643,1.956,1.956,0,0,0,1.427-.563l.887.827A3.477,3.477,0,0,1,180.606,223.807Zm-1.7-3.622h3.13a1.645,1.645,0,0,0-1.571-1.5A1.612,1.612,0,0,0,178.9,220.185Z" />
      <path
         id="path98"
         d="M187.4,217.678h1.356v.96a2.047,2.047,0,0,1,1.787-1.056,1.887,1.887,0,0,1,1.762,1.163,2.22,2.22,0,0,1,1.992-1.163,1.99,1.99,0,0,1,1.966,2.183v3.922h-1.354v-3.634a1.217,1.217,0,0,0-1.212-1.38,1.43,1.43,0,0,0-1.211.708c.011.132.024.252.024.384v3.922h-1.356v-3.634a1.216,1.216,0,0,0-1.211-1.38,1.4,1.4,0,0,0-1.187.683v4.331H187.4Z" />
      <path
         id="path100"
         d="M197.611,221.96c0-1.08.876-1.764,2.291-1.764a3.711,3.711,0,0,1,1.619.372v-.66c0-.791-.456-1.2-1.379-1.2a4.167,4.167,0,0,0-1.751.468l-.48-.984a5.766,5.766,0,0,1,2.5-.611c1.559,0,2.459.791,2.459,2.183v3.922h-1.344v-.612a2.511,2.511,0,0,1-1.787.707A1.894,1.894,0,0,1,197.611,221.96Zm2.5.875a2.14,2.14,0,0,0,1.415-.492v-.984a3.12,3.12,0,0,0-1.391-.287c-.768,0-1.247.336-1.247.864C198.883,222.487,199.362,222.835,200.106,222.835Z" />
      <path
         id="path102"
         d="M204.511,217.678h1.331v.863a2.265,2.265,0,0,1,1.871-.911,3.073,3.073,0,0,1-.1,6.116,2.245,2.245,0,0,1-1.751-.779v3.263h-1.355Zm1.355,1.762v2.507a1.841,1.841,0,0,0,1.439.66,1.923,1.923,0,0,0,0-3.837A1.764,1.764,0,0,0,205.866,219.44Z" />
      <path
         id="path104"
         d="M211.843,217.678h1.331v.863a2.265,2.265,0,0,1,1.871-.911,3.073,3.073,0,0,1-.1,6.116,2.245,2.245,0,0,1-1.751-.779v3.263h-1.355Zm1.355,1.762v2.507a1.841,1.841,0,0,0,1.439.66,1.923,1.923,0,0,0,0-3.837A1.764,1.764,0,0,0,213.2,219.44Z" />
      <path
         id="path106"
         d="M221.993,223.807a3.055,3.055,0,0,1-3.058-3.118,2.96,2.96,0,0,1,2.927-3.107,2.884,2.884,0,0,1,2.841,3.094v.336h-4.437a1.836,1.836,0,0,0,1.8,1.643,1.952,1.952,0,0,0,1.426-.563l.888.827A3.477,3.477,0,0,1,221.993,223.807Zm-1.7-3.622h3.13a1.643,1.643,0,0,0-1.57-1.5A1.615,1.615,0,0,0,220.29,220.185Z" />
      <path
         id="path108"
         d="M226.087,217.678h1.355v1.307a1.783,1.783,0,0,1,1.655-1.415,1.627,1.627,0,0,1,.588.119v1.188a1.907,1.907,0,0,0-.743-.144,1.651,1.651,0,0,0-1.5,1v3.958h-1.355Z" />
    </g>
    <rect
       id="rect112"
       height="31.467"
       width="205.267"
       y="377.121"
       x="85.228"
       class="cls-3" />
    <g
       id="g140">
      <path
         id="path114"
         d="M147,394.441a4.2,4.2,0,0,0,2.819,1.224c1.115,0,1.883-.563,1.883-1.331,0-.684-.408-1-1.523-1.2l-1.547-.265c-1.452-.264-2.159-.983-2.159-2.135,0-1.51,1.211-2.518,3.094-2.518a5.6,5.6,0,0,1,3.37,1.092l-.732,1.079a4.35,4.35,0,0,0-2.686-.972c-1.007,0-1.667.5-1.667,1.188,0,.6.372.912,1.295,1.055l1.487.264c1.692.288,2.483,1.031,2.483,2.3,0,1.535-1.367,2.627-3.37,2.627a5.286,5.286,0,0,1-3.526-1.356Z" />
      <path
         id="path116"
         d="M160.816,394.466l.947.911a4.308,4.308,0,1,1,.037-5.685l-.972.959a2.954,2.954,0,1,0-2.254,4.906A2.845,2.845,0,0,0,160.816,394.466Z" />
      <path
         id="path118"
         d="M163.435,394.441a4.2,4.2,0,0,0,2.819,1.224c1.115,0,1.883-.563,1.883-1.331,0-.684-.408-1-1.523-1.2l-1.547-.265c-1.451-.264-2.159-.983-2.159-2.135,0-1.51,1.211-2.518,3.094-2.518a5.606,5.606,0,0,1,3.37,1.092l-.732,1.079a4.352,4.352,0,0,0-2.686-.972c-1.007,0-1.667.5-1.667,1.188,0,.6.371.912,1.295,1.055l1.488.264c1.691.288,2.482,1.031,2.482,2.3,0,1.535-1.367,2.627-3.37,2.627a5.286,5.286,0,0,1-3.526-1.356Z" />
      <path
         id="path120"
         d="M170.947,388.337h1.439v8.4h-1.439Z" />
      <path
         id="path122"
         d="M176.875,390.724h1.355v.96a2.048,2.048,0,0,1,1.787-1.056,1.887,1.887,0,0,1,1.763,1.163,2.216,2.216,0,0,1,1.991-1.163,1.991,1.991,0,0,1,1.967,2.183v3.921h-1.355V393.1a1.216,1.216,0,0,0-1.211-1.38,1.432,1.432,0,0,0-1.212.708c.012.132.024.252.024.384v3.921h-1.355V393.1a1.216,1.216,0,0,0-1.211-1.38,1.4,1.4,0,0,0-1.188.683v4.33h-1.355Z" />
      <path
         id="path124"
         d="M187.219,388.673a.846.846,0,0,1,1.691,0,.846.846,0,0,1-1.691,0Zm1.523,8.059h-1.355v-6.008h1.355Z" />
      <path
         id="path126"
         d="M194.705,395.929a2.311,2.311,0,0,1-1.847.863,3.074,3.074,0,0,1,.084-6.116,2.293,2.293,0,0,1,1.751.792v-3.311l1.355-.227v8.8h-1.343Zm-1.44-.276a1.8,1.8,0,0,0,1.428-.66v-2.53a1.865,1.865,0,0,0-1.428-.648,1.924,1.924,0,0,0,0,3.838Z" />
      <path
         id="path128"
         d="M201.749,392.763V393.9h-4.174v-1.139Z" />
      <path
         id="path130"
         d="M204.63,396.732h-1.356v-8.575l1.356-.227Z" />
      <path
         id="path132"
         d="M206,395.006c0-1.08.875-1.764,2.291-1.764a3.715,3.715,0,0,1,1.619.372v-.66c0-.791-.456-1.2-1.379-1.2a4.152,4.152,0,0,0-1.751.468l-.48-.984a5.765,5.765,0,0,1,2.494-.611c1.56,0,2.459.791,2.459,2.183v3.921h-1.343v-.611a2.512,2.512,0,0,1-1.787.707A1.894,1.894,0,0,1,206,395.006Zm2.494.875a2.144,2.144,0,0,0,1.416-.492v-.984a3.124,3.124,0,0,0-1.392-.287c-.767,0-1.247.336-1.247.863C207.27,395.533,207.75,395.881,208.493,395.881Z" />
      <path
         id="path134"
         d="M214.313,396.769l-2.266-6.045h1.511l1.523,4.462,1.679-4.462h1.476l-2.855,6.992a2.031,2.031,0,0,1-2.135,1.583,2.874,2.874,0,0,1-.684-.084v-1.163a4.934,4.934,0,0,0,.528.048.958.958,0,0,0,.972-.7Z" />
      <path
         id="path136"
         d="M221.825,396.853a3.056,3.056,0,0,1-3.059-3.119,2.96,2.96,0,0,1,2.927-3.106,2.885,2.885,0,0,1,2.842,3.094v.336H220.1a1.836,1.836,0,0,0,1.8,1.643,1.956,1.956,0,0,0,1.427-.563l.887.827A3.477,3.477,0,0,1,221.825,396.853Zm-1.7-3.622h3.13a1.644,1.644,0,0,0-1.57-1.5A1.615,1.615,0,0,0,220.121,393.231Z" />
      <path
         id="path138"
         d="M225.918,390.724h1.355v1.307a1.782,1.782,0,0,1,1.655-1.415,1.6,1.6,0,0,1,.588.119v1.188a1.907,1.907,0,0,0-.743-.144,1.65,1.65,0,0,0-1.5,1v3.958h-1.355Z" />
    </g>
    <rect
       id="rect142"
       height="31.467"
       width="205.267"
       y="377.121"
       x="304.78"
       class="cls-3" />
    <g
       id="g160">
      <path
         id="path144"
         d="M387.222,388.337h1.32l-4.8,10.89h-1.319Z" />
      <path
         id="path146"
         d="M393.03,395.929a2.313,2.313,0,0,1-1.848.863,3.074,3.074,0,0,1,.084-6.116,2.289,2.289,0,0,1,1.751.792v-3.311l1.356-.227v8.8H393.03Zm-1.439-.276a1.8,1.8,0,0,0,1.426-.66v-2.53a1.861,1.861,0,0,0-1.426-.648,1.924,1.924,0,0,0,0,3.838Z" />
      <path
         id="path148"
         d="M398.839,396.853a3.055,3.055,0,0,1-3.059-3.119,2.96,2.96,0,0,1,2.927-3.106,2.885,2.885,0,0,1,2.842,3.094v.336h-4.438a1.835,1.835,0,0,0,1.8,1.643,1.956,1.956,0,0,0,1.428-.563l.887.827A3.477,3.477,0,0,1,398.839,396.853Zm-1.7-3.622h3.129a1.644,1.644,0,0,0-1.571-1.5A1.612,1.612,0,0,0,397.136,393.231Z" />
      <path
         id="path150"
         d="M402.044,390.724h1.475l1.667,4.389,1.667-4.389h1.428l-2.471,6.008H404.5Z" />
      <path
         id="path152"
         d="M411.774,388.337h1.32l-4.8,10.89h-1.32Z" />
      <path
         id="path154"
         d="M413.228,390.724H414.7l1.668,4.389,1.667-4.389h1.427l-2.471,6.008h-1.307Z" />
      <path
         id="path156"
         d="M424.554,395.929a2.311,2.311,0,0,1-1.847.863,3.074,3.074,0,0,1,.084-6.116,2.3,2.3,0,0,1,1.751.792v-3.311l1.355-.227v8.8h-1.343Zm-1.44-.276a1.8,1.8,0,0,0,1.428-.66v-2.53a1.863,1.863,0,0,0-1.428-.648,1.924,1.924,0,0,0,0,3.838Z" />
      <path
         id="path158"
         d="M429.99,391.348l.024,1.487h-.875l.012-1.487-1.235.815-.48-.767,1.343-.829-1.331-.827.48-.756,1.223.816-.012-1.463h.875l-.024,1.451,1.224-.8.492.756-1.332.827,1.344.829-.493.767Z" />
    </g>
    <rect
       id="rect162"
       height="31.467"
       width="205.267"
       y="420.034"
       x="85.228"
       class="cls-3" />
    <g
       id="g204">
      <path
         id="path164"
         d="M123.7,437.355a4.2,4.2,0,0,0,2.818,1.224c1.116,0,1.884-.564,1.884-1.331,0-.684-.409-1-1.524-1.2l-1.547-.264c-1.451-.264-2.159-.984-2.159-2.135,0-1.511,1.211-2.519,3.094-2.519a5.607,5.607,0,0,1,3.371,1.092l-.732,1.079a4.358,4.358,0,0,0-2.687-.971c-1.007,0-1.667.5-1.667,1.187,0,.6.372.912,1.3,1.056l1.487.263c1.691.289,2.483,1.032,2.483,2.3,0,1.535-1.368,2.627-3.371,2.627a5.291,5.291,0,0,1-3.526-1.355Z" />
      <path
         id="path166"
         d="M137.525,437.379l.947.912a4.309,4.309,0,1,1,.036-5.685l-.972.959a2.953,2.953,0,1,0-2.254,4.905A2.847,2.847,0,0,0,137.525,437.379Z" />
      <path
         id="path168"
         d="M140.144,437.355a4.2,4.2,0,0,0,2.818,1.224c1.116,0,1.883-.564,1.883-1.331,0-.684-.408-1-1.523-1.2l-1.547-.264c-1.451-.264-2.159-.984-2.159-2.135,0-1.511,1.211-2.519,3.094-2.519a5.6,5.6,0,0,1,3.37,1.092l-.731,1.079a4.358,4.358,0,0,0-2.687-.971c-1.007,0-1.667.5-1.667,1.187,0,.6.372.912,1.3,1.056l1.487.263c1.691.289,2.483,1.032,2.483,2.3,0,1.535-1.368,2.627-3.371,2.627a5.287,5.287,0,0,1-3.525-1.355Z" />
      <path
         id="path170"
         d="M147.656,431.251H149.1v8.4h-1.439Z" />
      <path
         id="path172"
         d="M153.751,431.251h1.44V438.4h4.473v1.247h-5.913Z" />
      <path
         id="path174"
         d="M163.6,433.542a3.113,3.113,0,1,1-3.023,3.106A3,3,0,0,1,163.6,433.542Zm1.679,3.118a1.7,1.7,0,1,0-3.358,0,1.7,1.7,0,1,0,3.358,0Z" />
      <path
         id="path176"
         d="M168.967,439.646l-1.619-6.009h1.295l1.056,4.246,1.235-4.246h1.151l1.236,4.258,1.043-4.258h1.272l-1.62,6.009h-1.307l-1.211-4.233-1.212,4.233Z" />
      <path
         id="path178"
         d="M180.773,435.676v1.14H176.6v-1.14Z" />
      <path
         id="path180"
         d="M182.467,431.251h1.44V438.4h4.473v1.247h-5.913Z" />
      <path
         id="path182"
         d="M192.354,439.766a3.054,3.054,0,0,1-3.059-3.118,2.959,2.959,0,0,1,2.927-3.106,2.883,2.883,0,0,1,2.842,3.093v.336h-4.437a1.835,1.835,0,0,0,1.8,1.644,1.951,1.951,0,0,0,1.427-.564l.888.827A3.476,3.476,0,0,1,192.354,439.766Zm-1.7-3.622h3.13a1.645,1.645,0,0,0-1.571-1.5A1.612,1.612,0,0,0,190.651,436.144Z" />
      <path
         id="path184"
         d="M195.56,433.637h1.475l1.667,4.39,1.667-4.39H201.8l-2.471,6.009h-1.307Z" />
      <path
         id="path186"
         d="M205.374,439.766a3.054,3.054,0,0,1-3.059-3.118,2.959,2.959,0,0,1,2.927-3.106,2.883,2.883,0,0,1,2.842,3.093v.336h-4.437a1.835,1.835,0,0,0,1.8,1.644,1.951,1.951,0,0,0,1.427-.564l.888.827A3.476,3.476,0,0,1,205.374,439.766Zm-1.7-3.622h3.13a1.645,1.645,0,0,0-1.571-1.5A1.612,1.612,0,0,0,203.671,436.144Z" />
      <path
         id="path188"
         d="M210.823,439.646h-1.356v-8.575l1.356-.228Z" />
      <path
         id="path190"
         d="M219.485,438.842a2.31,2.31,0,0,1-1.847.864,3.074,3.074,0,0,1,.084-6.117,2.292,2.292,0,0,1,1.751.792v-3.31l1.355-.228v8.8h-1.343Zm-1.439-.275a1.8,1.8,0,0,0,1.427-.66v-2.53a1.86,1.86,0,0,0-1.427-.648,1.924,1.924,0,0,0,0,3.838Z" />
      <path
         id="path192"
         d="M222.511,433.637h1.355v1.308a1.782,1.782,0,0,1,1.655-1.415,1.606,1.606,0,0,1,.588.119v1.187a1.928,1.928,0,0,0-.743-.143,1.65,1.65,0,0,0-1.5,1v3.958h-1.355Z" />
      <path
         id="path194"
         d="M227.059,431.586a.845.845,0,0,1,1.69,0,.845.845,0,0,1-1.69,0Zm1.522,8.06h-1.354v-6.009h1.354Z" />
      <path
         id="path196"
         d="M229.543,433.637h1.476l1.667,4.39,1.667-4.39h1.427l-2.471,6.009H232Z" />
      <path
         id="path198"
         d="M239.358,439.766a3.055,3.055,0,0,1-3.059-3.118,2.959,2.959,0,0,1,2.927-3.106,2.885,2.885,0,0,1,2.843,3.093v.336H237.63a1.837,1.837,0,0,0,1.8,1.644,1.952,1.952,0,0,0,1.427-.564l.887.827A3.472,3.472,0,0,1,239.358,439.766Zm-1.7-3.622h3.129a1.643,1.643,0,0,0-1.57-1.5A1.613,1.613,0,0,0,237.655,436.144Z" />
      <path
         id="path200"
         d="M243.451,433.637h1.355v1.308a1.782,1.782,0,0,1,1.655-1.415,1.6,1.6,0,0,1,.588.119v1.187a1.925,1.925,0,0,0-.743-.143,1.651,1.651,0,0,0-1.5,1v3.958h-1.355Z" />
      <path
         id="path202"
         d="M248.275,438.039a3.457,3.457,0,0,0,1.93.683c.72,0,1.212-.323,1.212-.8,0-.372-.252-.576-.828-.684l-1.067-.18c-1.163-.216-1.739-.755-1.739-1.655,0-1.127.923-1.858,2.327-1.858a4.223,4.223,0,0,1,2.362.719l-.636.888a3.272,3.272,0,0,0-1.81-.576c-.624,0-1.032.263-1.032.708,0,.384.216.552.852.659l1.056.192c1.2.228,1.774.78,1.774,1.679a2.2,2.2,0,0,1-2.446,1.955,4.036,4.036,0,0,1-2.591-.815Z" />
    </g>
    <rect
       id="rect206"
       height="31.467"
       width="205.267"
       y="420.034"
       x="304.78"
       class="cls-3" />
    <g
       id="g228">
      <path
         id="path208"
         d="M381.6,433.637h1.476l1.667,4.39,1.667-4.39h1.428l-2.471,6.009h-1.308Z" />
      <path
         id="path210"
         d="M388.64,431.586a.846.846,0,0,1,1.692,0,.846.846,0,0,1-1.692,0Zm1.524,8.06h-1.356v-6.009h1.356Z" />
      <path
         id="path212"
         d="M391.832,433.637h1.355v1.308a1.783,1.783,0,0,1,1.656-1.415,1.605,1.605,0,0,1,.587.119v1.187a1.926,1.926,0,0,0-.744-.143,1.65,1.65,0,0,0-1.5,1v3.958h-1.355Z" />
      <path
         id="path214"
         d="M397.364,434.716h-1.212v-1.079h1.212v-1.655l1.356-.287v1.942H400.4v1.079H398.72v3.047c0,.588.227.816.838.816a2.486,2.486,0,0,0,.816-.144v1.139a4.258,4.258,0,0,1-1.163.168c-1.211,0-1.847-.575-1.847-1.679Z" />
      <path
         id="path216"
         d="M401.421,431.586a.845.845,0,0,1,1.69,0,.845.845,0,0,1-1.69,0Zm1.522,8.06h-1.355v-6.009h1.355Z" />
      <path
         id="path218"
         d="M407.358,433.542a3.113,3.113,0,1,1-3.022,3.106A3,3,0,0,1,407.358,433.542Zm1.68,3.118a1.7,1.7,0,1,0-3.359,0,1.7,1.7,0,1,0,3.359,0Z" />
      <path
         id="path220"
         d="M416.537,441.589h-5.6v-.984h5.6Z" />
      <path
         id="path222"
         d="M420.462,439.706a2.238,2.238,0,0,1-1.775-.839v.779h-1.332v-8.575l1.356-.228v3.6a2.343,2.343,0,0,1,1.847-.852,3.074,3.074,0,0,1-.1,6.117Zm-1.751-4.306v2.507a1.84,1.84,0,0,0,1.439.66,1.924,1.924,0,0,0,0-3.838A1.766,1.766,0,0,0,418.711,435.4Z" />
      <path
         id="path224"
         d="M426.043,439.646h-1.356v-8.575l1.356-.228Z" />
      <path
         id="path226"
         d="M427.712,431.071l1.355-.228V436.2l2.494-2.567h1.548l-2.747,2.782,2.914,3.227h-1.738l-2.471-2.77v2.77h-1.355Z" />
    </g>
    <rect
       id="rect230"
       height="31.467"
       width="171.905"
       y="334.208"
       x="85.228"
       class="cls-3" />
    <g
       id="g256">
      <path
         id="path232"
         d="M132.517,345.423h3.07a4.2,4.2,0,1,1,0,8.4h-3.07Zm1.439,1.247v5.9h1.667a2.964,2.964,0,0,0,0-5.9Z" />
      <path
         id="path234"
         d="M142.752,347.235v6.584h-1.331v-8.4h1.871l2.458,5.085,2.447-5.085h1.871v8.4h-1.355V347.27l-2.974,5.949Z" />
      <path
         id="path236"
         d="M155.951,349.849v1.14h-4.174v-1.14Z" />
      <path
         id="path238"
         d="M157.477,347.81h1.355v.96a2.05,2.05,0,0,1,1.787-1.056,1.887,1.887,0,0,1,1.763,1.163,2.218,2.218,0,0,1,1.991-1.163,1.991,1.991,0,0,1,1.967,2.183v3.922h-1.355v-3.634a1.216,1.216,0,0,0-1.211-1.38,1.432,1.432,0,0,0-1.212.708c.012.132.024.252.024.384v3.922h-1.355v-3.634a1.216,1.216,0,0,0-1.211-1.38,1.4,1.4,0,0,0-1.188.684v4.33h-1.355Z" />
      <path
         id="path240"
         d="M169.248,351.384a1.3,1.3,0,0,0,1.319,1.44,1.517,1.517,0,0,0,1.32-.744v-4.27h1.355v6.009h-1.355v-1a2.2,2.2,0,0,1-1.919,1.091,2.015,2.015,0,0,1-2.075-2.147V347.81h1.355Z" />
      <path
         id="path242"
         d="M176.268,353.819h-1.356v-8.575l1.356-.228Z" />
      <path
         id="path244"
         d="M178.68,348.889h-1.211V347.81h1.211v-1.655l1.355-.287v1.942h1.68v1.079h-1.68v3.047c0,.588.228.816.84.816a2.508,2.508,0,0,0,.815-.144v1.139a4.253,4.253,0,0,1-1.163.168c-1.211,0-1.847-.576-1.847-1.679Z" />
      <path
         id="path246"
         d="M182.737,345.759a.846.846,0,0,1,1.691,0,.846.846,0,0,1-1.691,0Zm1.523,8.06H182.9V347.81h1.356Z" />
      <path
         id="path248"
         d="M185.929,347.81h1.331v.863a2.265,2.265,0,0,1,1.871-.911,3.073,3.073,0,0,1-.1,6.116,2.245,2.245,0,0,1-1.751-.779v3.263h-1.355Zm1.355,1.763v2.507a1.841,1.841,0,0,0,1.439.66,1.924,1.924,0,0,0,0-3.838A1.762,1.762,0,0,0,187.284,349.573Z" />
      <path
         id="path250"
         d="M193.02,352.092c0-1.08.876-1.763,2.291-1.763a3.711,3.711,0,0,1,1.619.372v-.66c0-.791-.456-1.2-1.379-1.2a4.167,4.167,0,0,0-1.751.468l-.48-.983a5.771,5.771,0,0,1,2.5-.612c1.559,0,2.459.791,2.459,2.183v3.922H196.93v-.611a2.511,2.511,0,0,1-1.787.707A1.9,1.9,0,0,1,193.02,352.092Zm2.495.875a2.14,2.14,0,0,0,1.415-.492v-.983a3.12,3.12,0,0,0-1.391-.287c-.768,0-1.247.336-1.247.863C194.292,352.62,194.771,352.967,195.515,352.967Z" />
      <path
         id="path252"
         d="M200.484,348.889h-1.211V347.81h1.211v-1.655l1.355-.287v1.942h1.679v1.079h-1.679v3.047c0,.588.228.816.84.816a2.516,2.516,0,0,0,.815-.144v1.139a4.254,4.254,0,0,1-1.164.168c-1.211,0-1.846-.576-1.846-1.679Z" />
      <path
         id="path254"
         d="M204.708,345.244l1.355-.228v3.777a2.181,2.181,0,0,1,1.907-1.079,2.022,2.022,0,0,1,2.075,2.147v3.958H208.69v-3.574a1.3,1.3,0,0,0-1.32-1.44,1.54,1.54,0,0,0-1.307.72v4.294h-1.355Z" />
    </g>
    <g
       id="g280">
      <path
         id="path258"
         d="M366.8,160.585h6.033v1.224h-4.593v2.4h3.166v1.2h-3.166v3.575H366.8Z" />
      <path
         id="path260"
         d="M373.9,160.921a.846.846,0,0,1,1.692,0,.846.846,0,0,1-1.692,0Zm1.524,8.06h-1.356v-6.009h1.356Z" />
      <path
         id="path262"
         d="M378.443,168.981h-1.355v-8.576l1.355-.227Z" />
      <path
         id="path264"
         d="M382.894,169.1a3.055,3.055,0,0,1-3.058-3.119,2.959,2.959,0,0,1,2.926-3.106,2.884,2.884,0,0,1,2.843,3.094v.336h-4.437a1.834,1.834,0,0,0,1.8,1.643,1.953,1.953,0,0,0,1.426-.563l.888.827A3.477,3.477,0,0,1,382.894,169.1Zm-1.7-3.622h3.131a1.645,1.645,0,0,0-1.571-1.5A1.613,1.613,0,0,0,381.191,165.479Z" />
      <path
         id="path266"
         d="M389.784,167.373a3.46,3.46,0,0,0,1.931.684c.719,0,1.212-.324,1.212-.8,0-.372-.252-.576-.829-.685l-1.067-.179c-1.163-.216-1.738-.755-1.738-1.656,0-1.127.923-1.858,2.326-1.858a4.225,4.225,0,0,1,2.363.72l-.636.887a3.283,3.283,0,0,0-1.811-.576c-.623,0-1.031.264-1.031.708,0,.384.216.552.851.659l1.056.193c1.2.227,1.774.779,1.774,1.679a2.2,2.2,0,0,1-2.446,1.955,4.033,4.033,0,0,1-2.591-.816Z" />
      <path
         id="path268"
         d="M396.851,169.017l-2.266-6.045h1.51l1.524,4.462,1.679-4.462h1.475l-2.854,6.992a2.032,2.032,0,0,1-2.135,1.583,2.874,2.874,0,0,1-.684-.084V170.3a4.934,4.934,0,0,0,.528.048.957.957,0,0,0,.971-.7Z" />
      <path
         id="path270"
         d="M401.856,167.373a3.464,3.464,0,0,0,1.931.684c.72,0,1.211-.324,1.211-.8,0-.372-.252-.576-.827-.685l-1.068-.179c-1.163-.216-1.739-.755-1.739-1.656,0-1.127.924-1.858,2.327-1.858a4.23,4.23,0,0,1,2.363.72l-.636.887a3.28,3.28,0,0,0-1.811-.576c-.624,0-1.031.264-1.031.708,0,.384.216.552.852.659l1.054.193c1.2.227,1.776.779,1.776,1.679a2.2,2.2,0,0,1-2.447,1.955,4.031,4.031,0,0,1-2.591-.816Z" />
      <path
         id="path272"
         d="M408.132,164.051H406.92v-1.079h1.212v-1.656l1.355-.287v1.943h1.679v1.079h-1.679V167.1c0,.588.228.815.839.815a2.5,2.5,0,0,0,.815-.143v1.138a4.209,4.209,0,0,1-1.163.168c-1.211,0-1.846-.575-1.846-1.678Z" />
      <path
         id="path274"
         d="M415.054,169.1A3.055,3.055,0,0,1,412,165.982a2.959,2.959,0,0,1,2.927-3.106,2.884,2.884,0,0,1,2.841,3.094v.336h-4.437a1.835,1.835,0,0,0,1.8,1.643,1.956,1.956,0,0,0,1.428-.563l.887.827A3.479,3.479,0,0,1,415.054,169.1Zm-1.7-3.622h3.13a1.644,1.644,0,0,0-1.571-1.5A1.612,1.612,0,0,0,413.351,165.479Z" />
      <path
         id="path276"
         d="M419.147,162.972H420.5v.96a2.048,2.048,0,0,1,1.787-1.056,1.888,1.888,0,0,1,1.763,1.163,2.217,2.217,0,0,1,1.991-1.163,1.991,1.991,0,0,1,1.967,2.183v3.922h-1.356v-3.634a1.216,1.216,0,0,0-1.211-1.38,1.431,1.431,0,0,0-1.211.708c.012.132.024.252.024.384v3.922H422.9v-3.634a1.216,1.216,0,0,0-1.211-1.38,1.4,1.4,0,0,0-1.187.683v4.331h-1.356Z" />
      <path
         id="path278"
         d="M429.756,167.373a3.459,3.459,0,0,0,1.93.684c.72,0,1.212-.324,1.212-.8,0-.372-.252-.576-.828-.685L431,166.39c-1.163-.216-1.74-.755-1.74-1.656,0-1.127.924-1.858,2.328-1.858a4.227,4.227,0,0,1,2.362.72l-.636.887a3.28,3.28,0,0,0-1.81-.576c-.624,0-1.032.264-1.032.708,0,.384.216.552.852.659l1.056.193c1.2.227,1.774.779,1.774,1.679a2.2,2.2,0,0,1-2.446,1.955,4.031,4.031,0,0,1-2.591-.816Z" />
    </g>
    <rect
       id="rect282"
       height="75.773"
       width="423.344"
       y="246.989"
       x="85.228"
       class="cls-3" />
    <rect
       id="rect284"
       height="31.467"
       width="190.805"
       y="279.501"
       x="304.78"
       class="cls-4" />
    <rect
       id="rect286"
       height="31.467"
       width="190.805"
       y="279.501"
       x="99.69"
       class="cls-4" />
    <g
       id="g308">
      <path
         id="path288"
         d="M269.36,258.96c1.631,0,2.794.96,2.794,2.292a2.1,2.1,0,0,1-1.224,1.823,2.124,2.124,0,0,1,1.464,1.93c0,1.379-1.175,2.351-2.843,2.351H265.21v-8.4Zm-2.087,1.644v1.727h1.846a.866.866,0,0,0,.96-.864.854.854,0,0,0-.96-.863Zm3.034,4.186a.91.91,0,0,0-1.02-.924h-2.014v1.846h2.014A.909.909,0,0,0,270.307,264.79Z" />
      <path
         id="path290"
         d="M275.721,267.356h-1.943v-8.575l1.943-.3Z" />
      <path
         id="path292"
         d="M280.184,261.072a3.2,3.2,0,1,1-3.227,3.2A3.15,3.15,0,0,1,280.184,261.072Zm1.343,3.2a1.357,1.357,0,1,0-2.675,0,1.353,1.353,0,1,0,2.675,0Z" />
      <path
         id="path294"
         d="M289.015,265.185l1.151,1.14a3.257,3.257,0,0,1-2.518,1.151,3.2,3.2,0,0,1,0-6.4,3.35,3.35,0,0,1,2.578,1.138l-1.187,1.188a1.619,1.619,0,0,0-1.319-.672,1.545,1.545,0,0,0,.047,3.07A1.5,1.5,0,0,0,289.015,265.185Z" />
      <path
         id="path296"
         d="M291.189,258.781l1.943-.3v5.146l2.159-2.459h2.147l-2.519,2.77,2.7,3.418H295.2l-2.063-2.734v2.734h-1.943Z" />
      <path
         id="path298"
         d="M302.96,267.356h-1.944v-8.575l1.944-.3Z" />
      <path
         id="path300"
         d="M304.184,265.581c0-1.139.888-1.8,2.411-1.8a4.022,4.022,0,0,1,1.439.288v-.5c0-.6-.4-.9-1.223-.9a4.608,4.608,0,0,0-1.739.431l-.672-1.355a6.867,6.867,0,0,1,2.843-.671c1.715,0,2.71.851,2.71,2.326v3.958h-1.919v-.54a2.462,2.462,0,0,1-1.715.636A1.926,1.926,0,0,1,304.184,265.581Zm2.735.587a2.107,2.107,0,0,0,1.115-.311v-.792a4.631,4.631,0,0,0-1.067-.132c-.635,0-1,.216-1,.612S306.319,266.168,306.919,266.168Z" />
      <path
         id="path302"
         d="M312.847,267.476l-2.278-6.308h2.147l1.235,3.994,1.415-3.994h2.1l-2.784,6.908a2.548,2.548,0,0,1-2.71,1.93,4,4,0,0,1-.8-.095V268.28a4.1,4.1,0,0,0,.575.048.949.949,0,0,0,1.008-.624Z" />
      <path
         id="path304"
         d="M321.115,267.476a3.2,3.2,0,0,1-3.263-3.2,3.106,3.106,0,0,1,3.119-3.215,3.041,3.041,0,0,1,3.046,3.286v.42H319.76a1.484,1.484,0,0,0,1.451,1.164,1.531,1.531,0,0,0,1.223-.516l1.284,1.067A3.608,3.608,0,0,1,321.115,267.476Zm-1.355-3.814h2.459a1.29,1.29,0,0,0-1.26-1.091A1.227,1.227,0,0,0,319.76,263.662Z" />
      <path
         id="path306"
         d="M325.232,261.168h1.944v1.4c.4-1.031.947-1.524,1.678-1.524a1.325,1.325,0,0,1,.648.157v1.667a2.125,2.125,0,0,0-.911-.193,1.706,1.706,0,0,0-1.415.768v3.91h-1.944Z" />
    </g>
    <g
       id="g334">
      <path
         id="path310"
         d="M157.959,290.717H159.4v8.4h-1.439Z" />
      <path
         id="path312"
         d="M164.545,290.717h1.32l-4.8,10.889h-1.319Z" />
      <path
         id="path314"
         d="M170.7,299.244a4.33,4.33,0,1,1,4.246-4.329A4.25,4.25,0,0,1,170.7,299.244Zm.012-7.376a3.052,3.052,0,0,0,0,6.081,3.055,3.055,0,0,0,0-6.081Z" />
      <path
         id="path316"
         d="M179.2,297.505a3.46,3.46,0,0,0,1.931.684c.719,0,1.211-.324,1.211-.8,0-.372-.252-.576-.828-.685l-1.067-.179c-1.163-.216-1.739-.755-1.739-1.656,0-1.127.924-1.858,2.327-1.858a4.222,4.222,0,0,1,2.363.72l-.636.887a3.283,3.283,0,0,0-1.811-.576c-.624,0-1.031.264-1.031.708,0,.384.216.552.851.659l1.055.193c1.2.227,1.775.779,1.775,1.678a2.2,2.2,0,0,1-2.446,1.955,4.038,4.038,0,0,1-2.591-.815Z" />
      <path
         id="path318"
         d="M189.2,297.373l.816.816a3.124,3.124,0,0,1-2.351,1.043,3.107,3.107,0,0,1,0-6.212,3.241,3.241,0,0,1,2.4,1.007l-.84.875a1.987,1.987,0,0,0-1.511-.707,1.928,1.928,0,0,0,.036,3.838A1.844,1.844,0,0,0,189.2,297.373Z" />
      <path
         id="path320"
         d="M191.186,290.537l1.356-.227v3.777a2.18,2.18,0,0,1,1.907-1.079,2.022,2.022,0,0,1,2.075,2.146v3.958h-1.356v-3.574a1.294,1.294,0,0,0-1.319-1.439,1.541,1.541,0,0,0-1.307.719v4.294h-1.356Z" />
      <path
         id="path322"
         d="M200.953,299.232a3.055,3.055,0,0,1-3.059-3.118,2.96,2.96,0,0,1,2.927-3.106,2.884,2.884,0,0,1,2.842,3.094v.336h-4.437a1.834,1.834,0,0,0,1.8,1.643,1.954,1.954,0,0,0,1.427-.563l.888.827A3.48,3.48,0,0,1,200.953,299.232Zm-1.7-3.622h3.13a1.645,1.645,0,0,0-1.571-1.5A1.613,1.613,0,0,0,199.25,295.61Z" />
      <path
         id="path324"
         d="M209.376,298.309a2.311,2.311,0,0,1-1.847.863,3.074,3.074,0,0,1,.084-6.116,2.292,2.292,0,0,1,1.751.792v-3.311l1.356-.227v8.8h-1.344Zm-1.439-.276a1.8,1.8,0,0,0,1.427-.66v-2.53a1.863,1.863,0,0,0-1.427-.648,1.924,1.924,0,0,0,0,3.838Z" />
      <path
         id="path326"
         d="M213.721,296.678a1.294,1.294,0,0,0,1.32,1.439,1.515,1.515,0,0,0,1.319-.744V293.1h1.356v6.008H216.36v-1a2.2,2.2,0,0,1-1.919,1.091,2.015,2.015,0,0,1-2.075-2.146V293.1h1.355Z" />
      <path
         id="path328"
         d="M220.741,299.112h-1.355v-8.575l1.355-.227Z" />
      <path
         id="path330"
         d="M225.193,299.232a3.055,3.055,0,0,1-3.059-3.118,2.96,2.96,0,0,1,2.927-3.106A2.885,2.885,0,0,1,227.9,296.1v.336h-4.439a1.836,1.836,0,0,0,1.8,1.643,1.956,1.956,0,0,0,1.427-.563l.887.827A3.476,3.476,0,0,1,225.193,299.232Zm-1.7-3.622h3.129a1.644,1.644,0,0,0-1.57-1.5A1.613,1.613,0,0,0,223.49,295.61Z" />
      <path
         id="path332"
         d="M229.286,293.1h1.355v1.307A1.782,1.782,0,0,1,232.3,293a1.6,1.6,0,0,1,.588.119V294.3a1.907,1.907,0,0,0-.743-.144,1.65,1.65,0,0,0-1.5,1v3.958h-1.355Z" />
    </g>
    <g
       id="g346">
      <path
         id="path336"
         d="M386.789,299.172a2.237,2.237,0,0,1-1.776-.838v.779h-1.331v-8.575l1.356-.228v3.6a2.338,2.338,0,0,1,1.847-.852,3.073,3.073,0,0,1-.1,6.116Zm-1.751-4.305v2.507a1.844,1.844,0,0,0,1.438.66,1.924,1.924,0,0,0,0-3.838A1.76,1.76,0,0,0,385.038,294.867Z" />
      <path
         id="path338"
         d="M392.37,299.113h-1.356v-8.575l1.356-.228Z" />
      <path
         id="path340"
         d="M394.038,290.538l1.355-.228v5.36l2.5-2.566h1.547l-2.746,2.782,2.914,3.227h-1.739l-2.471-2.771v2.771h-1.355Z" />
      <path
         id="path342"
         d="M400.53,293.1h1.356v.96a2.048,2.048,0,0,1,1.787-1.056,1.888,1.888,0,0,1,1.762,1.163,2.219,2.219,0,0,1,1.992-1.163,1.991,1.991,0,0,1,1.966,2.183v3.922h-1.355v-3.634a1.216,1.216,0,0,0-1.211-1.38,1.432,1.432,0,0,0-1.212.708c.012.132.024.252.024.384v3.922h-1.355v-3.634a1.216,1.216,0,0,0-1.211-1.38,1.4,1.4,0,0,0-1.187.684v4.33H400.53Z" />
      <path
         id="path344"
         d="M410.765,296.115a2.911,2.911,0,0,1,2.807-3.059,2.264,2.264,0,0,1,1.764.816V293.1h1.343v8.552h-1.356v-3.335a2.33,2.33,0,0,1-1.835.851A2.883,2.883,0,0,1,410.765,296.115Zm3.131,1.919a1.8,1.8,0,0,0,1.427-.66v-2.531a1.862,1.862,0,0,0-1.427-.647,1.924,1.924,0,0,0,0,3.838Z" />
    </g>
    <g
       id="g354">
      <path
         id="path348"
         d="M313.538,33.646H280.261a1.313,1.313,0,0,0-1.314,1.313V67.816a1.314,1.314,0,0,0,1.314,1.314h33.277a1.314,1.314,0,0,0,1.314-1.314V34.959A1.313,1.313,0,0,0,313.538,33.646ZM312.225,66.5h-30.65V36.273h30.65Z"
         class="cls-5" />
      <path
         id="path350"
         d="M307.776,41.457a1.25,1.25,0,0,0,.508.1,1.313,1.313,0,0,0,1.314-1.313,1.284,1.284,0,0,0-.105-.508,1.374,1.374,0,0,0-.281-.421,1.312,1.312,0,0,0-1.436-.28,1.3,1.3,0,0,0-.7.7,1.25,1.25,0,0,0-.105.508,1.309,1.309,0,0,0,.385.928A1.349,1.349,0,0,0,307.776,41.457Z"
         class="cls-6" />
      <path
         id="path352"
         d="M304.781,41.562a1.312,1.312,0,1,0-1.261-1.821,1.266,1.266,0,0,0-.1.508,1.313,1.313,0,0,0,1.314,1.313Z"
         class="cls-6" />
    </g>
    <rect
       id="rect356"
       height="75.773"
       width="423.344"
       y="462.948"
       x="85.228"
       class="cls-7" />
    <g
       id="g390">
      <path
         id="path358"
         d="M243.394,515.765h4.1a2.743,2.743,0,1,1,0,5.469h-2.038v2.927h-2.063Zm2.063,1.7v2.123h1.667c.839,0,1.247-.456,1.247-1.067s-.408-1.056-1.235-1.056Z" />
      <path
         id="path360"
         d="M251.734,515.585l1.943-.3v3.693a2.284,2.284,0,0,1,1.955-1.1,2,2,0,0,1,2.05,2.11v4.174H255.74V520.55a1.031,1.031,0,0,0-1.032-1.151,1.248,1.248,0,0,0-1.031.516v4.246h-1.943Z" />
      <path
         id="path362"
         d="M260.577,524.281l-2.279-6.309h2.147l1.235,3.994,1.415-3.994h2.1l-2.783,6.908a2.55,2.55,0,0,1-2.711,1.931,3.946,3.946,0,0,1-.8-.1v-1.63a4.19,4.19,0,0,0,.575.047.949.949,0,0,0,1.008-.624Z" />
      <path
         id="path364"
         d="M266.386,522.23a4,4,0,0,0,1.99.623c.552,0,.888-.191.888-.5,0-.24-.18-.372-.576-.444l-1.187-.216c-1.2-.228-1.823-.84-1.823-1.8,0-1.271.971-2.027,2.59-2.027a4.972,4.972,0,0,1,2.519.708l-.887,1.235a3.5,3.5,0,0,0-1.776-.527c-.467,0-.743.155-.743.431,0,.252.156.36.635.444l1.164.216c1.223.227,1.871.851,1.859,1.787.012,1.211-1.139,2.123-2.663,2.123a5.056,5.056,0,0,1-2.842-.756Z" />
      <path
         id="path366"
         d="M272.05,515.933a1.1,1.1,0,0,1,2.194,0,1.1,1.1,0,0,1-2.194,0Zm2.063,8.228h-1.944v-6.189h1.944Z" />
      <path
         id="path368"
         d="M279.919,521.99l1.152,1.139a3.257,3.257,0,0,1-2.519,1.152,3.2,3.2,0,0,1,0-6.4,3.351,3.351,0,0,1,2.579,1.138l-1.188,1.188a1.618,1.618,0,0,0-1.319-.672,1.546,1.546,0,0,0,.048,3.07A1.5,1.5,0,0,0,279.919,521.99Z" />
      <path
         id="path370"
         d="M281.805,522.385c0-1.138.888-1.8,2.411-1.8a4.012,4.012,0,0,1,1.44.289v-.5c0-.6-.4-.9-1.224-.9a4.6,4.6,0,0,0-1.739.432l-.672-1.356a6.861,6.861,0,0,1,2.843-.67c1.715,0,2.711.851,2.711,2.326v3.958h-1.919v-.54a2.465,2.465,0,0,1-1.716.635A1.926,1.926,0,0,1,281.805,522.385Zm2.735.588a2.113,2.113,0,0,0,1.116-.311v-.792a4.646,4.646,0,0,0-1.068-.132c-.636,0-1,.216-1,.612S283.94,522.973,284.54,522.973Z" />
      <path
         id="path372"
         d="M290.985,524.161h-1.944v-8.576l1.944-.3Z" />
      <path
         id="path374"
         d="M295.137,515.765H297.2v3.263h3.394v-3.263h2.063v8.4h-2.063v-3.323H297.2v3.323h-2.063Z" />
      <path
         id="path376"
         d="M303.825,522.385c0-1.138.888-1.8,2.411-1.8a4.007,4.007,0,0,1,1.439.289v-.5c0-.6-.4-.9-1.223-.9a4.6,4.6,0,0,0-1.739.432l-.672-1.356a6.858,6.858,0,0,1,2.843-.67c1.714,0,2.71.851,2.71,2.326v3.958h-1.919v-.54a2.461,2.461,0,0,1-1.715.635A1.926,1.926,0,0,1,303.825,522.385Zm2.734.588a2.108,2.108,0,0,0,1.116-.311v-.792a4.639,4.639,0,0,0-1.068-.132c-.635,0-1,.216-1,.612S305.96,522.973,306.559,522.973Z" />
      <path
         id="path378"
         d="M311.06,517.972H313v1.4c.395-1.032.947-1.524,1.678-1.524a1.328,1.328,0,0,1,.649.156v1.667a2.13,2.13,0,0,0-.912-.192,1.709,1.709,0,0,0-1.415.768v3.91H311.06Z" />
      <path
         id="path380"
         d="M320.467,523.357a2.338,2.338,0,0,1-1.824.84,2.949,2.949,0,0,1-2.734-3.143,2.983,2.983,0,0,1,2.878-3.118,2.168,2.168,0,0,1,1.655.743v-3.094l1.944-.3v8.875h-1.919Zm-1.176-.768a1.506,1.506,0,0,0,1.151-.491v-2.087a1.574,1.574,0,0,0-1.151-.48,1.53,1.53,0,0,0,0,3.058Z" />
      <path
         id="path382"
         d="M324.992,524.161l-1.655-6.189h1.835l.863,3.7,1.044-3.7h1.595l1.031,3.682.851-3.682h1.788l-1.643,6.189h-1.848l-1.007-3.647-.983,3.647Z" />
      <path
         id="path384"
         d="M332.888,522.385c0-1.138.888-1.8,2.411-1.8a4.007,4.007,0,0,1,1.439.289v-.5c0-.6-.395-.9-1.223-.9a4.613,4.613,0,0,0-1.739.432l-.672-1.356a6.861,6.861,0,0,1,2.843-.67c1.715,0,2.71.851,2.71,2.326v3.958h-1.919v-.54a2.461,2.461,0,0,1-1.715.635A1.925,1.925,0,0,1,332.888,522.385Zm2.735.588a2.11,2.11,0,0,0,1.115-.311v-.792a4.631,4.631,0,0,0-1.067-.132c-.636,0-1,.216-1,.612S335.023,522.973,335.623,522.973Z" />
      <path
         id="path386"
         d="M340.125,517.972h1.942v1.4c.4-1.032.948-1.524,1.68-1.524a1.325,1.325,0,0,1,.647.156v1.667a2.13,2.13,0,0,0-.912-.192,1.712,1.712,0,0,0-1.415.768v3.91h-1.942Z" />
      <path
         id="path388"
         d="M348.234,524.281a3.2,3.2,0,0,1-3.263-3.2,3.106,3.106,0,0,1,3.119-3.215,3.042,3.042,0,0,1,3.047,3.286v.42h-4.258a1.484,1.484,0,0,0,1.451,1.164,1.536,1.536,0,0,0,1.224-.517l1.283,1.068A3.608,3.608,0,0,1,348.234,524.281Zm-1.355-3.815h2.459a1.289,1.289,0,0,0-1.26-1.09A1.228,1.228,0,0,0,346.879,520.466Z" />
    </g>
    <g
       id="g398">
      <path
         id="path392"
         d="M282.44,488.657v7.989c0,4.412,6.474,7.988,14.46,7.988s14.459-3.576,14.459-7.988v-7.989"
         class="cls-8" />
      <path
         id="path394"
         d="M282.44,480.669v7.988c0,4.412,6.474,7.989,14.46,7.989s14.459-3.577,14.459-7.989v-7.988"
         class="cls-8" />
      <ellipse
         id="ellipse396"
         ry="7.988"
         rx="14.46"
         cy="480.669"
         cx="296.9"
         class="cls-8" />
    </g>
    <line
       id="line400"
       y2="116.856"
       x2="296.9"
       y1="103.213"
       x1="296.9"
       class="cls-2" />
  </g>
</svg>
