<?xml version="1.0" encoding="UTF-8" standalone="no"?>
<svg
   xmlns:dc="http://purl.org/dc/elements/1.1/"
   xmlns:cc="http://creativecommons.org/ns#"
   xmlns:rdf="http://www.w3.org/1999/02/22-rdf-syntax-ns#"
   xmlns:svg="http://www.w3.org/2000/svg"
   xmlns="http://www.w3.org/2000/svg"
   xmlns:sodipodi="http://sodipodi.sourceforge.net/DTD/sodipodi-0.dtd"
   xmlns:inkscape="http://www.inkscape.org/namespaces/inkscape"
   inkscape:version="1.0 (4035a4f, 2020-05-01)"
   sodipodi:docname="iscsi-storage.svg"
   version="1.1"
   viewBox="0 0 595.276 419.246"
   height="147.901mm"
   width="210mm"
   data-name="Layer 1"
   id="Layer_1">
  <metadata
     id="metadata639">
    <rdf:RDF>
      <cc:Work
         rdf:about="">
        <dc:format>image/svg+xml</dc:format>
        <dc:type
           rdf:resource="http://purl.org/dc/dcmitype/StillImage" />
        <dc:title></dc:title>
        <dc:subject>
          <rdf:Bag>
            <rdf:li>iSCSI</rdf:li>
            <rdf:li>SCSI</rdf:li>
          </rdf:Bag>
        </dc:subject>
      </cc:Work>
    </rdf:RDF>
  </metadata>
  <sodipodi:namedview
     inkscape:current-layer="Layer_1"
     inkscape:window-maximized="0"
     inkscape:window-y="25"
     inkscape:window-x="0"
     inkscape:cy="279.49795"
     inkscape:cx="396.85039"
     inkscape:zoom="0.63122024"
     showgrid="false"
     id="namedview637"
     inkscape:window-height="480"
     inkscape:window-width="987"
     inkscape:pageshadow="2"
     inkscape:pageopacity="0"
     guidetolerance="10"
     gridtolerance="10"
     objecttolerance="10"
     borderopacity="1"
     bordercolor="#666666"
     pagecolor="#ffffff" />
  <defs
     id="defs12">
    <style
       id="style10">
      .cls-1 {
        fill: #dbe8f5;
      }

      .cls-10, .cls-2, .cls-3, .cls-6, .cls-8, .cls-9 {
        fill: #fff;
      }

      .cls-2 {
        stroke: #a1c2e7;
      }

      .cls-2, .cls-4, .cls-6, .cls-7, .cls-8 {
        stroke-miterlimit: 10;
      }

      .cls-3 {
        stroke: #000;
        stroke-linecap: round;
      }

      .cls-10, .cls-3, .cls-9 {
        stroke-linejoin: round;
      }

      .cls-4 {
        fill: none;
      }

      .cls-10, .cls-4 {
        stroke: #06c;
      }

      .cls-5, .cls-7 {
        fill: #e6e6e6;
      }

      .cls-6 {
        stroke: #fab6b6;
      }

      .cls-7, .cls-9 {
        stroke: #be0000;
      }

      .cls-8 {
        stroke: #d2d2d2;
      }
    </style>
  </defs>
  <g
     id="g634">
    <rect
       id="rect14"
       height="121.614"
       width="169.728"
       y="27.242"
       x="401.751"
       class="cls-1" />
    <rect
       id="rect16"
       height="80.912"
       width="43.373"
       y="54.819"
       x="415.887"
       class="cls-2" />
    <rect
       id="rect18"
       height="80.912"
       width="43.373"
       y="54.819"
       x="464.929"
       class="cls-2" />
    <rect
       id="rect20"
       height="80.912"
       width="43.373"
       y="54.819"
       x="513.971"
       class="cls-2" />
    <g
       id="g48">
      <path
         id="path22"
         d="M416.1,36.8h6.226v1.469h-2.249v5.527h-1.719V38.266H416.1Z" />
      <path
         id="path24"
         d="M422.526,42.314c0-.95.74-1.5,2.009-1.5a3.354,3.354,0,0,1,1.2.24v-.42c0-.5-.33-.749-1.019-.749a3.835,3.835,0,0,0-1.449.36l-.56-1.13a5.723,5.723,0,0,1,2.369-.56c1.429,0,2.259.71,2.259,1.939v3.3h-1.6v-.45a2.05,2.05,0,0,1-1.428.53A1.606,1.606,0,0,1,422.526,42.314Zm2.279.489a1.756,1.756,0,0,0,.929-.26v-.66a3.91,3.91,0,0,0-.889-.109c-.53,0-.829.18-.829.509S424.306,42.8,424.805,42.8Z" />
      <path
         id="path26"
         d="M428.557,38.635h1.618v1.17c.33-.86.79-1.27,1.4-1.27a1.115,1.115,0,0,1,.54.131v1.389a1.771,1.771,0,0,0-.76-.16,1.428,1.428,0,0,0-1.179.639v3.259h-1.618Z" />
      <path
         id="path28"
         d="M432.6,41.184a2.474,2.474,0,0,1,2.4-2.578,1.8,1.8,0,0,1,1.4.649v-.62h1.588v5.227c0,1.39-.959,2.16-2.717,2.16a4.931,4.931,0,0,1-2.139-.46l.5-1.17a3.652,3.652,0,0,0,1.579.4c.77,0,1.17-.32,1.17-.95V43.1a1.934,1.934,0,0,1-1.5.68A2.445,2.445,0,0,1,432.6,41.184Zm2.818,1.28a1.255,1.255,0,0,0,.96-.411V40.335a1.314,1.314,0,0,0-.96-.4,1.206,1.206,0,0,0-1.229,1.259A1.22,1.22,0,0,0,435.414,42.464Z" />
      <path
         id="path30"
         d="M441.734,43.893a2.667,2.667,0,0,1-2.717-2.669,2.587,2.587,0,0,1,2.6-2.678,2.534,2.534,0,0,1,2.538,2.738v.35h-3.548a1.237,1.237,0,0,0,1.209.969,1.279,1.279,0,0,0,1.02-.429l1.069.889A3,3,0,0,1,441.734,43.893Zm-1.129-3.178h2.049a1.073,1.073,0,0,0-1.05-.91A1.024,1.024,0,0,0,440.605,40.715Z" />
      <path
         id="path32"
         d="M445.7,39.885h-1v-1.25h1V37.206l1.619-.329v1.758h1.38v1.25h-1.38v2c0,.46.181.621.68.621a2.143,2.143,0,0,0,.66-.111V43.7a4.5,4.5,0,0,1-1.109.159c-1.22,0-1.85-.559-1.85-1.659Z" />
      <path
         id="path34"
         d="M452.186,41.564a3.841,3.841,0,0,0,2.268.929c.739,0,1.19-.3,1.19-.729,0-.41-.241-.6-.92-.73l-1.49-.26a1.853,1.853,0,0,1-1.718-1.869c0-1.359,1.04-2.209,2.778-2.209a4.757,4.757,0,0,1,2.869.92l-.87,1.249A3.343,3.343,0,0,0,454.2,38.1c-.68,0-1.069.28-1.069.66,0,.349.229.539.79.629l1.4.24c1.31.23,2,.909,2,1.979,0,1.359-1.159,2.289-2.988,2.289a4.96,4.96,0,0,1-3.028-1.06Z" />
      <path
         id="path36"
         d="M460.884,43.893a2.667,2.667,0,0,1-2.718-2.669,2.587,2.587,0,0,1,2.6-2.678,2.534,2.534,0,0,1,2.538,2.738v.35h-3.548a1.235,1.235,0,0,0,1.209.969,1.276,1.276,0,0,0,1.019-.429l1.07.889A3,3,0,0,1,460.884,43.893Zm-1.129-3.178H461.8a1.074,1.074,0,0,0-1.05-.91A1.024,1.024,0,0,0,459.755,40.715Z" />
      <path
         id="path38"
         d="M464.315,38.635h1.62v1.17c.33-.86.79-1.27,1.4-1.27a1.114,1.114,0,0,1,.539.131v1.389a1.767,1.767,0,0,0-.759-.16,1.424,1.424,0,0,0-1.179.639v3.259h-1.62Z" />
      <path
         id="path40"
         d="M468.325,38.635h1.76l1.169,3.239,1.18-3.239H474.1l-2.11,5.158h-1.579Z" />
      <path
         id="path42"
         d="M477.144,43.893a2.667,2.667,0,0,1-2.718-2.669,2.587,2.587,0,0,1,2.6-2.678,2.534,2.534,0,0,1,2.538,2.738v.35h-3.547a1.235,1.235,0,0,0,1.209.969,1.277,1.277,0,0,0,1.019-.429l1.069.889A3,3,0,0,1,477.144,43.893Zm-1.129-3.178h2.048a1.072,1.072,0,0,0-1.049-.91A1.024,1.024,0,0,0,476.015,40.715Z" />
      <path
         id="path44"
         d="M480.575,38.635h1.619v1.17c.33-.86.79-1.27,1.4-1.27a1.114,1.114,0,0,1,.539.131v1.389a1.77,1.77,0,0,0-.759-.16,1.427,1.427,0,0,0-1.18.639v3.259h-1.619Z" />
      <path
         id="path46"
         d="M484.875,42.693l2.959-2.928a1.312,1.312,0,0,0,.47-.929c0-.451-.441-.79-1.031-.79a2.414,2.414,0,0,0-1.768.859l-.859-1.049a3.835,3.835,0,0,1,2.678-1.149c1.489,0,2.479.809,2.479,2.029a2.449,2.449,0,0,1-.91,1.809l-2.019,1.948,3.028-.009v1.309h-5.027Z" />
    </g>
    <g
       id="g56">
      <path
         id="path50"
         d="M425.728,102.175v6.545c0,3.614,5.3,6.544,11.845,6.544s11.846-2.93,11.846-6.544v-6.545"
         class="cls-3" />
      <path
         id="path52"
         d="M425.728,95.631v6.544c0,3.615,5.3,6.545,11.845,6.545s11.846-2.93,11.846-6.545V95.631"
         class="cls-3" />
      <ellipse
         id="ellipse54"
         ry="6.544"
         rx="11.846"
         cy="95.631"
         cx="437.573"
         class="cls-3" />
    </g>
    <g
       id="g64">
      <path
         id="path58"
         d="M474.769,102.175v6.545c0,3.614,5.3,6.544,11.846,6.544s11.846-2.93,11.846-6.544v-6.545"
         class="cls-3" />
      <path
         id="path60"
         d="M474.769,95.631v6.544c0,3.615,5.3,6.545,11.846,6.545s11.846-2.93,11.846-6.545V95.631"
         class="cls-3" />
      <ellipse
         id="ellipse62"
         ry="6.544"
         rx="11.846"
         cy="95.631"
         cx="486.615"
         class="cls-3" />
    </g>
    <g
       id="g72">
      <path
         id="path66"
         d="M523.811,102.175v6.545c0,3.614,5.3,6.544,11.846,6.544s11.845-2.93,11.845-6.544v-6.545"
         class="cls-3" />
      <path
         id="path68"
         d="M523.811,95.631v6.544c0,3.615,5.3,6.545,11.846,6.545s11.845-2.93,11.845-6.545V95.631"
         class="cls-3" />
      <ellipse
         id="ellipse70"
         ry="6.544"
         rx="11.846"
         cy="95.631"
         cx="535.657"
         class="cls-3" />
    </g>
    <rect
       id="rect74"
       height="121.614"
       width="169.728"
       y="27.242"
       x="212.774"
       class="cls-1" />
    <rect
       id="rect76"
       height="36.49"
       width="358.705"
       y="164.224"
       x="212.774"
       class="cls-4" />
    <g
       id="g84">
      <rect
         id="rect78"
         height="80.912"
         width="43.373"
         y="54.819"
         x="226.91"
         class="cls-2" />
      <rect
         id="rect80"
         height="80.912"
         width="43.373"
         y="54.819"
         x="275.952"
         class="cls-2" />
      <rect
         id="rect82"
         height="80.912"
         width="43.373"
         y="54.819"
         x="324.993"
         class="cls-2" />
    </g>
    <g
       id="g112">
      <path
         id="path86"
         d="M227.12,36.8h6.226v1.469H231.1v5.527h-1.719V38.266H227.12Z" />
      <path
         id="path88"
         d="M233.549,42.314c0-.95.74-1.5,2.01-1.5a3.358,3.358,0,0,1,1.2.24v-.42c0-.5-.33-.749-1.02-.749a3.844,3.844,0,0,0-1.449.36l-.56-1.13a5.723,5.723,0,0,1,2.369-.56c1.429,0,2.259.71,2.259,1.939v3.3h-1.6v-.45a2.054,2.054,0,0,1-1.429.53A1.606,1.606,0,0,1,233.549,42.314Zm2.279.489a1.762,1.762,0,0,0,.93-.26v-.66a3.926,3.926,0,0,0-.89-.109c-.53,0-.829.18-.829.509S235.329,42.8,235.828,42.8Z" />
      <path
         id="path90"
         d="M239.58,38.635H241.2v1.17c.33-.86.79-1.27,1.4-1.27a1.111,1.111,0,0,1,.539.131v1.389a1.767,1.767,0,0,0-.759-.16,1.427,1.427,0,0,0-1.18.639v3.259H239.58Z" />
      <path
         id="path92"
         d="M243.62,41.184a2.474,2.474,0,0,1,2.4-2.578,1.8,1.8,0,0,1,1.4.649v-.62h1.589v5.227c0,1.39-.959,2.16-2.718,2.16a4.937,4.937,0,0,1-2.139-.46l.5-1.17a3.652,3.652,0,0,0,1.579.4c.77,0,1.169-.32,1.169-.95V43.1a1.932,1.932,0,0,1-1.5.68A2.445,2.445,0,0,1,243.62,41.184Zm2.818,1.28a1.253,1.253,0,0,0,.959-.411V40.335a1.311,1.311,0,0,0-.959-.4,1.206,1.206,0,0,0-1.23,1.259A1.22,1.22,0,0,0,246.438,42.464Z" />
      <path
         id="path94"
         d="M252.758,43.893a2.667,2.667,0,0,1-2.718-2.669,2.587,2.587,0,0,1,2.6-2.678,2.534,2.534,0,0,1,2.539,2.738v.35h-3.549a1.237,1.237,0,0,0,1.21.969,1.277,1.277,0,0,0,1.019-.429l1.07.889A3.006,3.006,0,0,1,252.758,43.893Zm-1.13-3.178h2.049a1.073,1.073,0,0,0-1.049-.91A1.024,1.024,0,0,0,251.628,40.715Z" />
      <path
         id="path96"
         d="M256.718,39.885h-1v-1.25h1V37.206l1.619-.329v1.758h1.38v1.25h-1.38v2c0,.46.181.621.68.621a2.147,2.147,0,0,0,.66-.111V43.7a4.507,4.507,0,0,1-1.11.159c-1.219,0-1.849-.559-1.849-1.659Z" />
      <path
         id="path98"
         d="M263.208,41.564a3.846,3.846,0,0,0,2.27.929c.739,0,1.189-.3,1.189-.729,0-.41-.24-.6-.92-.73l-1.489-.26a1.853,1.853,0,0,1-1.719-1.869c0-1.359,1.039-2.209,2.778-2.209a4.757,4.757,0,0,1,2.869.92l-.87,1.249a3.34,3.34,0,0,0-2.088-.769c-.68,0-1.07.28-1.07.66,0,.349.23.539.79.629l1.4.24c1.309.23,2,.909,2,1.979,0,1.359-1.159,2.289-2.989,2.289a4.962,4.962,0,0,1-3.028-1.06Z" />
      <path
         id="path100"
         d="M271.907,43.893a2.667,2.667,0,0,1-2.718-2.669,2.587,2.587,0,0,1,2.6-2.678,2.534,2.534,0,0,1,2.538,2.738v.35h-3.548a1.236,1.236,0,0,0,1.209.969,1.279,1.279,0,0,0,1.02-.429l1.069.889A3,3,0,0,1,271.907,43.893Zm-1.129-3.178h2.049a1.074,1.074,0,0,0-1.05-.91A1.024,1.024,0,0,0,270.778,40.715Z" />
      <path
         id="path102"
         d="M275.339,38.635h1.619v1.17c.33-.86.789-1.27,1.4-1.27a1.111,1.111,0,0,1,.539.131v1.389a1.767,1.767,0,0,0-.759-.16,1.425,1.425,0,0,0-1.179.639v3.259h-1.619Z" />
      <path
         id="path104"
         d="M279.349,38.635h1.759l1.17,3.239,1.179-3.239h1.669l-2.109,5.158h-1.579Z" />
      <path
         id="path106"
         d="M288.167,43.893a2.667,2.667,0,0,1-2.718-2.669,2.587,2.587,0,0,1,2.6-2.678,2.534,2.534,0,0,1,2.539,2.738v.35h-3.548a1.236,1.236,0,0,0,1.209.969,1.279,1.279,0,0,0,1.02-.429l1.069.889A3,3,0,0,1,288.167,43.893Zm-1.129-3.178h2.048a1.072,1.072,0,0,0-1.049-.91A1.023,1.023,0,0,0,287.038,40.715Z" />
      <path
         id="path108"
         d="M291.6,38.635h1.618v1.17c.33-.86.79-1.27,1.4-1.27a1.111,1.111,0,0,1,.539.131v1.389a1.767,1.767,0,0,0-.759-.16,1.428,1.428,0,0,0-1.18.639v3.259H291.6Z" />
      <path
         id="path110"
         d="M298.627,43.793h-1.539V38.4l-1.38.57v-1.36l1.949-.809h.97Z" />
    </g>
    <rect
       id="rect114"
       height="175.922"
       width="169.728"
       y="216.081"
       x="212.774"
       class="cls-1" />
    <rect
       id="rect116"
       height="27.386"
       width="141.456"
       y="229.029"
       x="226.91"
       class="cls-2" />
    <rect
       id="rect118"
       height="27.386"
       width="141.456"
       y="269.082"
       x="226.91"
       class="cls-2" />
    <g
       id="g166">
      <path
         id="path120"
         d="M227.979,371.22a3.84,3.84,0,0,0,2.269.93c.739,0,1.189-.3,1.189-.73,0-.41-.24-.6-.919-.729l-1.49-.261a1.853,1.853,0,0,1-1.718-1.868c0-1.36,1.039-2.209,2.778-2.209a4.759,4.759,0,0,1,2.869.919l-.87,1.25a3.338,3.338,0,0,0-2.089-.77c-.68,0-1.069.28-1.069.66,0,.349.229.539.789.629l1.4.24c1.31.23,2,.91,2,1.979,0,1.359-1.159,2.289-2.988,2.289a4.96,4.96,0,0,1-3.028-1.06Z" />
      <path
         id="path122"
         d="M236.678,373.549a2.667,2.667,0,0,1-2.719-2.668,2.588,2.588,0,0,1,2.6-2.679,2.534,2.534,0,0,1,2.539,2.738v.35h-3.549a1.237,1.237,0,0,0,1.21.969,1.274,1.274,0,0,0,1.019-.429l1.07.889A3.006,3.006,0,0,1,236.678,373.549Zm-1.13-3.178H237.6a1.073,1.073,0,0,0-1.049-.91A1.024,1.024,0,0,0,235.548,370.371Z" />
      <path
         id="path124"
         d="M240.109,368.292h1.619v1.169c.33-.859.79-1.269,1.4-1.269a1.106,1.106,0,0,1,.54.13v1.389a1.77,1.77,0,0,0-.759-.16,1.426,1.426,0,0,0-1.18.64v3.258h-1.619Z" />
      <path
         id="path126"
         d="M244.119,368.292h1.759l1.17,3.238,1.179-3.238H249.9l-2.109,5.157h-1.579Z" />
      <path
         id="path128"
         d="M252.938,373.549a2.666,2.666,0,0,1-2.719-2.668,2.587,2.587,0,0,1,2.6-2.679,2.534,2.534,0,0,1,2.538,2.738v.35h-3.548a1.237,1.237,0,0,0,1.21.969,1.275,1.275,0,0,0,1.019-.429l1.069.889A3,3,0,0,1,252.938,373.549Zm-1.13-3.178h2.049a1.073,1.073,0,0,0-1.049-.91A1.024,1.024,0,0,0,251.808,370.371Z" />
      <path
         id="path130"
         d="M256.369,368.292h1.619v1.169c.33-.859.79-1.269,1.4-1.269a1.106,1.106,0,0,1,.54.13v1.389a1.775,1.775,0,0,0-.76-.16,1.425,1.425,0,0,0-1.179.64v3.258h-1.619Z" />
      <path
         id="path132"
         d="M266.517,371.64l.959.95a2.715,2.715,0,0,1-2.1.959,2.669,2.669,0,0,1,0-5.337,2.79,2.79,0,0,1,2.149.949l-.989.99a1.349,1.349,0,0,0-1.1-.56,1.288,1.288,0,0,0,.04,2.559A1.247,1.247,0,0,0,266.517,371.64Z" />
      <path
         id="path134"
         d="M268.089,371.97c0-.95.74-1.5,2.009-1.5a3.357,3.357,0,0,1,1.2.241v-.42c0-.5-.33-.75-1.019-.75a3.835,3.835,0,0,0-1.449.36l-.56-1.129a5.707,5.707,0,0,1,2.369-.56c1.429,0,2.258.71,2.258,1.939v3.3h-1.6V373a2.053,2.053,0,0,1-1.429.53A1.605,1.605,0,0,1,268.089,371.97Zm2.279.49a1.756,1.756,0,0,0,.929-.261v-.659a3.856,3.856,0,0,0-.889-.11c-.53,0-.83.18-.83.51S269.868,372.46,270.368,372.46Z" />
      <path
         id="path136"
         d="M277.127,373.479a1.806,1.806,0,0,1-1.409-.66v.63h-1.6V366.3l1.618-.25v2.9a1.949,1.949,0,0,1,1.51-.689,2.457,2.457,0,0,1,2.278,2.619A2.486,2.486,0,0,1,277.127,373.479Zm-1.39-3.458v1.719a1.328,1.328,0,0,0,.97.41,1.275,1.275,0,0,0,0-2.549A1.251,1.251,0,0,0,275.737,370.021Z" />
      <path
         id="path138"
         d="M282.177,373.449h-1.618V366.3l1.618-.25Z" />
      <path
         id="path140"
         d="M285.927,373.549a2.666,2.666,0,0,1-2.718-2.668,2.587,2.587,0,0,1,2.6-2.679,2.534,2.534,0,0,1,2.538,2.738v.35H284.8a1.236,1.236,0,0,0,1.209.969,1.276,1.276,0,0,0,1.02-.429l1.069.889A3,3,0,0,1,285.927,373.549Zm-1.129-3.178h2.049a1.074,1.074,0,0,0-1.05-.91A1.024,1.024,0,0,0,284.8,370.371Z" />
      <path
         id="path142"
         d="M292.977,372.779a1.946,1.946,0,0,1-1.519.7,2.457,2.457,0,0,1-2.279-2.618,2.486,2.486,0,0,1,2.4-2.6,1.806,1.806,0,0,1,1.38.62V366.3l1.619-.25v7.4h-1.6Zm-.98-.639a1.254,1.254,0,0,0,.96-.41v-1.739a1.314,1.314,0,0,0-.96-.4,1.275,1.275,0,0,0,0,2.549Z" />
      <path
         id="path144"
         d="M298.667,369.541h-1v-1.249h1v-1.43l1.619-.329v1.759h1.38v1.249h-1.38v2c0,.46.181.62.68.62a2.147,2.147,0,0,0,.66-.111v1.31a4.5,4.5,0,0,1-1.109.16c-1.22,0-1.85-.56-1.85-1.659Z" />
      <path
         id="path146"
         d="M305.026,368.212a2.669,2.669,0,1,1-2.688,2.669A2.626,2.626,0,0,1,305.026,368.212Zm1.12,2.669a1.13,1.13,0,1,0-2.229,0,1.127,1.127,0,1,0,2.229,0Z" />
      <path
         id="path148"
         d="M311.058,366.453h5.287v1.439h-3.568v1.329H315.3v1.4h-2.519v1.389h3.608v1.44h-5.327Z" />
      <path
         id="path150"
         d="M318.117,369.541h-1v-1.249h1v-1.43l1.619-.329v1.759h1.379v1.249h-1.379v2c0,.46.18.62.68.62a2.142,2.142,0,0,0,.659-.111v1.31a4.5,4.5,0,0,1-1.109.16c-1.22,0-1.849-.56-1.849-1.659Z" />
      <path
         id="path152"
         d="M322.018,366.3l1.619-.25v3.079a1.9,1.9,0,0,1,1.629-.92,1.667,1.667,0,0,1,1.709,1.759v3.478h-1.62v-3.008a.858.858,0,0,0-.859-.96,1.04,1.04,0,0,0-.859.43v3.538h-1.619Z" />
      <path
         id="path154"
         d="M330.686,373.549a2.666,2.666,0,0,1-2.719-2.668,2.588,2.588,0,0,1,2.6-2.679,2.534,2.534,0,0,1,2.539,2.738v.35h-3.547a1.235,1.235,0,0,0,1.209.969,1.274,1.274,0,0,0,1.019-.429l1.069.889A3,3,0,0,1,330.686,373.549Zm-1.129-3.178h2.048a1.073,1.073,0,0,0-1.049-.91A1.024,1.024,0,0,0,329.557,370.371Z" />
      <path
         id="path156"
         d="M334.117,368.292h1.619v1.169c.329-.859.789-1.269,1.4-1.269a1.1,1.1,0,0,1,.539.13v1.389a1.771,1.771,0,0,0-.76-.16,1.425,1.425,0,0,0-1.179.64v3.258h-1.619Z" />
      <path
         id="path158"
         d="M338.537,368.292h1.619v.84a1.9,1.9,0,0,1,1.629-.92,1.667,1.667,0,0,1,1.709,1.759v3.478h-1.619v-3.008a.859.859,0,0,0-.859-.96,1.043,1.043,0,0,0-.86.43v3.538h-1.619Z" />
      <path
         id="path160"
         d="M347.206,373.549a2.667,2.667,0,0,1-2.719-2.668,2.588,2.588,0,0,1,2.6-2.679,2.534,2.534,0,0,1,2.539,2.738v.35h-3.548a1.236,1.236,0,0,0,1.209.969,1.276,1.276,0,0,0,1.02-.429l1.069.889A3,3,0,0,1,347.206,373.549Zm-1.129-3.178h2.049a1.074,1.074,0,0,0-1.05-.91A1.024,1.024,0,0,0,346.077,370.371Z" />
      <path
         id="path162"
         d="M351.167,369.541h-1v-1.249h1v-1.43l1.619-.329v1.759h1.379v1.249h-1.379v2c0,.46.18.62.68.62a2.142,2.142,0,0,0,.659-.111v1.31a4.5,4.5,0,0,1-1.109.16c-1.22,0-1.849-.56-1.849-1.659Z" />
      <path
         id="path164"
         d="M359.825,373.449h-1.539v-5.4l-1.38.57v-1.36l1.949-.809h.97Z" />
    </g>
    <rect
       id="rect168"
       height="175.922"
       width="169.728"
       y="216.081"
       x="23.796"
       class="cls-5" />
    <rect
       id="rect170"
       height="27.386"
       width="141.456"
       y="269.082"
       x="37.932"
       class="cls-6" />
    <rect
       id="rect172"
       height="39.346"
       width="141.456"
       y="309.135"
       x="37.932"
       class="cls-6" />
    <rect
       id="rect174"
       height="31.593"
       width="73.291"
       y="313.011"
       x="102.494"
       class="cls-6" />
    <g
       id="g240">
      <path
         id="path176"
         d="M39,365.22a3.842,3.842,0,0,0,2.27.93c.739,0,1.188-.3,1.188-.73,0-.41-.239-.6-.919-.729l-1.489-.261a1.853,1.853,0,0,1-1.719-1.868c0-1.36,1.04-2.209,2.778-2.209a4.756,4.756,0,0,1,2.869.919l-.87,1.25a3.336,3.336,0,0,0-2.088-.77c-.68,0-1.07.28-1.07.66,0,.349.23.539.79.629l1.4.24c1.309.23,2,.91,2,1.979,0,1.359-1.16,2.289-2.989,2.289a4.96,4.96,0,0,1-3.028-1.06Z" />
      <path
         id="path178"
         d="M47.7,367.549a2.666,2.666,0,0,1-2.718-2.668,2.587,2.587,0,0,1,2.6-2.679,2.534,2.534,0,0,1,2.538,2.738v.35H46.571a1.236,1.236,0,0,0,1.209.969,1.276,1.276,0,0,0,1.02-.429l1.069.889A3,3,0,0,1,47.7,367.549Zm-1.129-3.178H48.62a1.074,1.074,0,0,0-1.05-.91A1.024,1.024,0,0,0,46.571,364.371Z" />
      <path
         id="path180"
         d="M51.132,362.292H52.75v1.169c.331-.859.791-1.269,1.4-1.269a1.1,1.1,0,0,1,.539.13v1.389a1.767,1.767,0,0,0-.759-.16,1.427,1.427,0,0,0-1.18.64v3.258H51.132Z" />
      <path
         id="path182"
         d="M55.142,362.292H56.9l1.169,3.238,1.18-3.238h1.668l-2.108,5.157H57.23Z" />
      <path
         id="path184"
         d="M63.96,367.549a2.666,2.666,0,0,1-2.718-2.668,2.587,2.587,0,0,1,2.6-2.679,2.534,2.534,0,0,1,2.539,2.738v.35H62.831a1.235,1.235,0,0,0,1.209.969,1.276,1.276,0,0,0,1.02-.429l1.069.889A3,3,0,0,1,63.96,367.549Zm-1.129-3.178h2.048a1.073,1.073,0,0,0-1.049-.91A1.023,1.023,0,0,0,62.831,364.371Z" />
      <path
         id="path186"
         d="M67.392,362.292H69.01v1.169c.33-.859.79-1.269,1.4-1.269a1.1,1.1,0,0,1,.539.13v1.389a1.767,1.767,0,0,0-.759-.16,1.427,1.427,0,0,0-1.18.64v3.258H67.392Z" />
      <path
         id="path188"
         d="M74.871,367.449l-1.379-5.157h1.529l.719,3.078.87-3.078h1.329l.859,3.068.71-3.068H81l-1.37,5.157H78.089l-.839-3.038-.82,3.038Z" />
      <path
         id="path190"
         d="M81.691,360.592a.915.915,0,0,1,1.83,0,.915.915,0,0,1-1.83,0Zm1.719,6.857H81.792v-5.157H83.41Z" />
      <path
         id="path192"
         d="M85.351,363.541h-1v-1.249h1v-1.43l1.619-.329v1.759h1.379v1.249H86.97v2c0,.46.18.62.679.62a2.147,2.147,0,0,0,.66-.111v1.31a4.5,4.5,0,0,1-1.109.16c-1.22,0-1.849-.56-1.849-1.659Z" />
      <path
         id="path194"
         d="M89.251,360.3l1.619-.25v3.079a1.9,1.9,0,0,1,1.63-.92,1.666,1.666,0,0,1,1.708,1.759v3.478H92.589v-3.008a.858.858,0,0,0-.859-.96,1.043,1.043,0,0,0-.86.43v3.538H89.251Z" />
      <path
         id="path196"
         d="M100.06,360.343l.859.989a4.477,4.477,0,0,0,0,7.376l-.859.989a5.626,5.626,0,0,1,0-9.354Z" />
      <path
         id="path198"
         d="M104.24,362.212a2.669,2.669,0,1,1-2.689,2.669A2.625,2.625,0,0,1,104.24,362.212Zm1.119,2.669a1.13,1.13,0,1,0-2.229,0,1.127,1.127,0,1,0,2.229,0Z" />
      <path
         id="path200"
         d="M110.979,367.479a1.807,1.807,0,0,1-1.409-.66v.63h-1.6V360.3l1.619-.25v2.9a1.949,1.949,0,0,1,1.509-.689,2.457,2.457,0,0,1,2.279,2.619A2.486,2.486,0,0,1,110.979,367.479Zm-1.389-3.458v1.719a1.328,1.328,0,0,0,.97.41,1.275,1.275,0,0,0,0-2.549A1.25,1.25,0,0,0,109.59,364.021Z" />
      <path
         id="path202"
         d="M114.7,365.84a3.336,3.336,0,0,0,1.658.52c.46,0,.74-.161.74-.42,0-.2-.15-.31-.479-.37l-.991-.18c-1-.19-1.518-.7-1.518-1.5,0-1.06.809-1.689,2.158-1.689a4.149,4.149,0,0,1,2.1.59l-.741,1.029a2.913,2.913,0,0,0-1.478-.44c-.391,0-.62.13-.62.36,0,.21.13.3.529.37l.97.18c1.019.19,1.559.709,1.549,1.489.01,1.009-.95,1.769-2.219,1.769a4.208,4.208,0,0,1-2.368-.63Z" />
      <path
         id="path204"
         d="M122.029,362.212a2.669,2.669,0,1,1-2.689,2.669A2.625,2.625,0,0,1,122.029,362.212Zm1.12,2.669a1.131,1.131,0,1,0-2.23,0,1.128,1.128,0,1,0,2.23,0Z" />
      <path
         id="path206"
         d="M127.379,367.449H125.76V360.3l1.619-.25Z" />
      <path
         id="path208"
         d="M131.128,367.549a2.666,2.666,0,0,1-2.718-2.668,2.588,2.588,0,0,1,2.6-2.679,2.534,2.534,0,0,1,2.539,2.738v.35H130a1.235,1.235,0,0,0,1.208.969,1.275,1.275,0,0,0,1.02-.429l1.069.889A3,3,0,0,1,131.128,367.549ZM130,364.371h2.048a1.074,1.074,0,0,0-1.049-.91A1.023,1.023,0,0,0,130,364.371Z" />
      <path
         id="path210"
         d="M135.09,363.541h-1v-1.249h1v-1.43l1.619-.329v1.759h1.379v1.249h-1.379v2c0,.46.18.62.68.62a2.137,2.137,0,0,0,.659-.111v1.31a4.493,4.493,0,0,1-1.109.16c-1.22,0-1.849-.56-1.849-1.659Z" />
      <path
         id="path212"
         d="M141.479,367.549a2.667,2.667,0,0,1-2.719-2.668,2.588,2.588,0,0,1,2.6-2.679,2.534,2.534,0,0,1,2.539,2.738v.35H140.35a1.236,1.236,0,0,0,1.209.969,1.276,1.276,0,0,0,1.02-.429l1.069.889A3,3,0,0,1,141.479,367.549Zm-1.129-3.178H142.4a1.074,1.074,0,0,0-1.05-.91A1.024,1.024,0,0,0,140.35,364.371Z" />
      <path
         id="path214"
         d="M145.47,369.7l-.859-.989a4.478,4.478,0,0,0,0-7.376l.859-.989a5.627,5.627,0,0,1,0,9.354Z" />
      <path
         id="path216"
         d="M38.562,374.292h1.6v.719a1.9,1.9,0,0,1,1.529-.749,2.458,2.458,0,0,1,2.279,2.619,2.486,2.486,0,0,1-2.4,2.6,1.8,1.8,0,0,1-1.389-.6V381.6H38.562Zm1.619,1.729v1.719a1.328,1.328,0,0,0,.969.41,1.275,1.275,0,0,0,0-2.549A1.248,1.248,0,0,0,40.181,376.021Z" />
      <path
         id="path218"
         d="M45,372.3l1.619-.25v3.079a1.9,1.9,0,0,1,1.629-.92,1.667,1.667,0,0,1,1.709,1.759v3.478H48.34v-3.008a.859.859,0,0,0-.86-.96,1.041,1.041,0,0,0-.859.43v3.538H45Z" />
      <path
         id="path220"
         d="M52.371,379.549l-1.9-5.257h1.789l1.03,3.328,1.179-3.328h1.749L53.9,380.049a2.124,2.124,0,0,1-2.258,1.609,3.3,3.3,0,0,1-.67-.08v-1.36a3.428,3.428,0,0,0,.48.04.789.789,0,0,0,.839-.519Z" />
      <path
         id="path222"
         d="M57.211,377.84a3.342,3.342,0,0,0,1.66.52c.46,0,.739-.161.739-.42,0-.2-.15-.31-.48-.37l-.989-.18c-1-.19-1.519-.7-1.519-1.5,0-1.06.809-1.689,2.159-1.689a4.142,4.142,0,0,1,2.1.59l-.739,1.029a2.916,2.916,0,0,0-1.479-.44c-.39,0-.62.13-.62.36,0,.21.13.3.53.37l.969.18c1.02.19,1.559.709,1.549,1.489.01,1.009-.949,1.769-2.218,1.769a4.214,4.214,0,0,1-2.369-.63Z" />
      <path
         id="path224"
         d="M61.932,372.592a.912.912,0,0,1,.909-.909.922.922,0,0,1,.92.909.915.915,0,0,1-1.829,0Zm1.718,6.857H62.032v-5.157H63.65Z" />
      <path
         id="path226"
         d="M68.489,377.64l.96.95a2.715,2.715,0,0,1-2.1.959,2.669,2.669,0,0,1,0-5.337,2.79,2.79,0,0,1,2.149.949l-.99.99a1.347,1.347,0,0,0-1.1-.56,1.288,1.288,0,0,0,.04,2.559A1.246,1.246,0,0,0,68.489,377.64Z" />
      <path
         id="path228"
         d="M70.062,377.97c0-.95.739-1.5,2.009-1.5a3.361,3.361,0,0,1,1.2.241v-.42c0-.5-.33-.75-1.02-.75a3.844,3.844,0,0,0-1.449.36l-.559-1.129a5.7,5.7,0,0,1,2.368-.56c1.43,0,2.259.71,2.259,1.939v3.3h-1.6V379a2.054,2.054,0,0,1-1.429.53A1.605,1.605,0,0,1,70.062,377.97Zm2.278.49a1.762,1.762,0,0,0,.93-.261v-.659a3.871,3.871,0,0,0-.89-.11c-.529,0-.829.18-.829.51S71.841,378.46,72.34,378.46Z" />
      <path
         id="path230"
         d="M77.71,379.449H76.092V372.3l1.618-.25Z" />
      <path
         id="path232"
         d="M81.561,377.22a3.84,3.84,0,0,0,2.269.93c.739,0,1.189-.3,1.189-.73,0-.41-.24-.6-.919-.729l-1.49-.261a1.853,1.853,0,0,1-1.718-1.868c0-1.36,1.039-2.209,2.778-2.209a4.756,4.756,0,0,1,2.869.919l-.87,1.25a3.338,3.338,0,0,0-2.089-.77c-.68,0-1.069.28-1.069.66,0,.349.229.539.789.629l1.4.24c1.31.23,2,.91,2,1.979,0,1.359-1.159,2.289-2.988,2.289a4.96,4.96,0,0,1-3.028-1.06Z" />
      <path
         id="path234"
         d="M92.838,377.14l1.13,1.07a3.582,3.582,0,1,1,.05-4.508l-1.16,1.1a2.038,2.038,0,0,0-1.679-.929,2.07,2.07,0,1,0,1.659,3.268Z" />
      <path
         id="path236"
         d="M95.411,377.22a3.837,3.837,0,0,0,2.269.93c.739,0,1.189-.3,1.189-.73,0-.41-.24-.6-.92-.729l-1.489-.261a1.853,1.853,0,0,1-1.719-1.868c0-1.36,1.04-2.209,2.779-2.209a4.756,4.756,0,0,1,2.868.919l-.869,1.25a3.34,3.34,0,0,0-2.089-.77c-.68,0-1.07.28-1.07.66,0,.349.23.539.79.629l1.4.24c1.309.23,2,.91,2,1.979,0,1.359-1.159,2.289-2.988,2.289a4.96,4.96,0,0,1-3.029-1.06Z" />
      <path
         id="path238"
         d="M101.571,372.453h1.72v7h-1.72Z" />
    </g>
    <rect
       id="rect242"
       height="175.922"
       width="169.728"
       y="216.081"
       x="401.751"
       class="cls-1" />
    <rect
       id="rect244"
       height="27.386"
       width="141.456"
       y="269.082"
       x="415.887"
       class="cls-2" />
    <g
       id="g292">
      <path
         id="path246"
         d="M416.956,371.22a3.84,3.84,0,0,0,2.27.93c.739,0,1.188-.3,1.188-.73,0-.41-.239-.6-.919-.729l-1.489-.261a1.853,1.853,0,0,1-1.719-1.868c0-1.36,1.039-2.209,2.778-2.209a4.756,4.756,0,0,1,2.869.919l-.87,1.25a3.336,3.336,0,0,0-2.088-.77c-.68,0-1.07.28-1.07.66,0,.349.23.539.789.629l1.4.24c1.309.23,2,.91,2,1.979,0,1.359-1.159,2.289-2.989,2.289a4.96,4.96,0,0,1-3.028-1.06Z" />
      <path
         id="path248"
         d="M425.655,373.549a2.666,2.666,0,0,1-2.718-2.668,2.587,2.587,0,0,1,2.6-2.679,2.534,2.534,0,0,1,2.539,2.738v.35h-3.549a1.239,1.239,0,0,0,1.21.969,1.277,1.277,0,0,0,1.02-.429l1.069.889A3.006,3.006,0,0,1,425.655,373.549Zm-1.13-3.178h2.049a1.073,1.073,0,0,0-1.049-.91A1.025,1.025,0,0,0,424.525,370.371Z" />
      <path
         id="path250"
         d="M429.087,368.292h1.618v1.169c.33-.859.79-1.269,1.4-1.269a1.109,1.109,0,0,1,.541.13v1.389a1.778,1.778,0,0,0-.76-.16,1.427,1.427,0,0,0-1.18.64v3.258h-1.618Z" />
      <path
         id="path252"
         d="M433.1,368.292h1.758l1.17,3.238,1.179-3.238h1.669l-2.108,5.157h-1.579Z" />
      <path
         id="path254"
         d="M441.915,373.549a2.667,2.667,0,0,1-2.719-2.668,2.587,2.587,0,0,1,2.6-2.679,2.534,2.534,0,0,1,2.539,2.738v.35h-3.549a1.238,1.238,0,0,0,1.21.969,1.277,1.277,0,0,0,1.02-.429l1.069.889A3.006,3.006,0,0,1,441.915,373.549Zm-1.13-3.178h2.049a1.073,1.073,0,0,0-1.049-.91A1.024,1.024,0,0,0,440.785,370.371Z" />
      <path
         id="path256"
         d="M445.347,368.292h1.618v1.169c.33-.859.79-1.269,1.4-1.269a1.1,1.1,0,0,1,.54.13v1.389a1.77,1.77,0,0,0-.759-.16,1.427,1.427,0,0,0-1.18.64v3.258h-1.618Z" />
      <path
         id="path258"
         d="M455.494,371.64l.959.95a2.712,2.712,0,0,1-2.1.959,2.669,2.669,0,0,1,0-5.337,2.793,2.793,0,0,1,2.15.949l-.99.99a1.348,1.348,0,0,0-1.1-.56,1.288,1.288,0,0,0,.04,2.559A1.246,1.246,0,0,0,455.494,371.64Z" />
      <path
         id="path260"
         d="M457.066,371.97c0-.95.74-1.5,2.009-1.5a3.357,3.357,0,0,1,1.2.241v-.42c0-.5-.33-.75-1.019-.75a3.835,3.835,0,0,0-1.449.36l-.56-1.129a5.707,5.707,0,0,1,2.369-.56c1.429,0,2.259.71,2.259,1.939v3.3h-1.6V373a2.05,2.05,0,0,1-1.428.53A1.606,1.606,0,0,1,457.066,371.97Zm2.279.49a1.756,1.756,0,0,0,.929-.261v-.659a3.856,3.856,0,0,0-.889-.11c-.53,0-.829.18-.829.51S458.846,372.46,459.345,372.46Z" />
      <path
         id="path262"
         d="M466.1,373.479a1.807,1.807,0,0,1-1.409-.66v.63h-1.6V366.3l1.619-.25v2.9a1.947,1.947,0,0,1,1.509-.689,2.458,2.458,0,0,1,2.279,2.619A2.486,2.486,0,0,1,466.1,373.479Zm-1.389-3.458v1.719a1.328,1.328,0,0,0,.97.41,1.275,1.275,0,0,0,0-2.549A1.248,1.248,0,0,0,464.715,370.021Z" />
      <path
         id="path264"
         d="M471.154,373.449h-1.618V366.3l1.618-.25Z" />
      <path
         id="path266"
         d="M474.9,373.549a2.666,2.666,0,0,1-2.717-2.668,2.587,2.587,0,0,1,2.6-2.679,2.534,2.534,0,0,1,2.538,2.738v.35h-3.548a1.237,1.237,0,0,0,1.209.969,1.276,1.276,0,0,0,1.02-.429l1.069.889A3,3,0,0,1,474.9,373.549Zm-1.129-3.178h2.049a1.074,1.074,0,0,0-1.05-.91A1.024,1.024,0,0,0,473.775,370.371Z" />
      <path
         id="path268"
         d="M481.954,372.779a1.946,1.946,0,0,1-1.519.7,2.457,2.457,0,0,1-2.279-2.618,2.486,2.486,0,0,1,2.4-2.6,1.8,1.8,0,0,1,1.379.62V366.3l1.619-.25v7.4h-1.6Zm-.979-.639a1.254,1.254,0,0,0,.959-.41v-1.739a1.313,1.313,0,0,0-.959-.4,1.275,1.275,0,0,0,0,2.549Z" />
      <path
         id="path270"
         d="M487.645,369.541h-1v-1.249h1v-1.43l1.619-.329v1.759h1.38v1.249h-1.38v2c0,.46.18.62.679.62a2.152,2.152,0,0,0,.661-.111v1.31a4.507,4.507,0,0,1-1.11.16c-1.22,0-1.849-.56-1.849-1.659Z" />
      <path
         id="path272"
         d="M494,368.212a2.669,2.669,0,1,1-2.689,2.669A2.625,2.625,0,0,1,494,368.212Zm1.119,2.669a1.13,1.13,0,1,0-2.228,0,1.127,1.127,0,1,0,2.228,0Z" />
      <path
         id="path274"
         d="M500.035,366.453h5.287v1.439h-3.567v1.329h2.518v1.4h-2.518v1.389h3.607v1.44h-5.327Z" />
      <path
         id="path276"
         d="M507.1,369.541h-1v-1.249h1v-1.43l1.619-.329v1.759h1.379v1.249h-1.379v2c0,.46.18.62.68.62a2.146,2.146,0,0,0,.659-.111v1.31a4.507,4.507,0,0,1-1.11.16c-1.219,0-1.848-.56-1.848-1.659Z" />
      <path
         id="path278"
         d="M511,366.3l1.619-.25v3.079a1.9,1.9,0,0,1,1.629-.92,1.667,1.667,0,0,1,1.709,1.759v3.478h-1.619v-3.008a.859.859,0,0,0-.859-.96,1.043,1.043,0,0,0-.86.43v3.538H511Z" />
      <path
         id="path280"
         d="M519.663,373.549a2.667,2.667,0,0,1-2.719-2.668,2.588,2.588,0,0,1,2.6-2.679,2.534,2.534,0,0,1,2.539,2.738v.35h-3.548a1.236,1.236,0,0,0,1.209.969,1.276,1.276,0,0,0,1.02-.429l1.069.889A3,3,0,0,1,519.663,373.549Zm-1.129-3.178h2.049a1.074,1.074,0,0,0-1.05-.91A1.024,1.024,0,0,0,518.534,370.371Z" />
      <path
         id="path282"
         d="M523.1,368.292h1.619v1.169c.329-.859.789-1.269,1.4-1.269a1.1,1.1,0,0,1,.539.13v1.389a1.767,1.767,0,0,0-.759-.16,1.424,1.424,0,0,0-1.179.64v3.258H523.1Z" />
      <path
         id="path284"
         d="M527.515,368.292h1.619v.84a1.9,1.9,0,0,1,1.629-.92,1.667,1.667,0,0,1,1.709,1.759v3.478h-1.619v-3.008a.859.859,0,0,0-.86-.96,1.041,1.041,0,0,0-.859.43v3.538h-1.619Z" />
      <path
         id="path286"
         d="M536.184,373.549a2.667,2.667,0,0,1-2.719-2.668,2.588,2.588,0,0,1,2.6-2.679,2.535,2.535,0,0,1,2.54,2.738v.35h-3.548a1.235,1.235,0,0,0,1.209.969,1.274,1.274,0,0,0,1.019-.429l1.07.889A3,3,0,0,1,536.184,373.549Zm-1.129-3.178H537.1a1.075,1.075,0,0,0-1.05-.91A1.024,1.024,0,0,0,535.055,370.371Z" />
      <path
         id="path288"
         d="M540.145,369.541h-1v-1.249h1v-1.43l1.619-.329v1.759h1.379v1.249h-1.379v2c0,.46.179.62.679.62a2.147,2.147,0,0,0,.66-.111v1.31a4.507,4.507,0,0,1-1.11.16c-1.22,0-1.848-.56-1.848-1.659Z" />
      <path
         id="path290"
         d="M546.074,372.349l2.958-2.928a1.3,1.3,0,0,0,.47-.929c0-.45-.44-.79-1.029-.79a2.411,2.411,0,0,0-1.769.86l-.859-1.05a3.841,3.841,0,0,1,2.677-1.149c1.49,0,2.479.81,2.479,2.029a2.445,2.445,0,0,1-.909,1.809l-2.019,1.949,3.029-.01v1.309h-5.028Z" />
    </g>
    <g
       id="g310">
      <path
         id="path294"
         d="M370.826,178.157h5.287V179.6h-3.568v1.33h2.518v1.4h-2.518v1.389h3.608v1.44h-5.327Z" />
      <path
         id="path296"
         d="M377.886,181.246h-1V180h1v-1.429l1.619-.33V180h1.379v1.25h-1.379v2c0,.46.18.62.68.62a2.169,2.169,0,0,0,.659-.11v1.31a4.507,4.507,0,0,1-1.11.159c-1.218,0-1.848-.559-1.848-1.659Z" />
      <path
         id="path298"
         d="M381.786,178.008l1.619-.25v3.078a1.9,1.9,0,0,1,1.629-.92,1.667,1.667,0,0,1,1.709,1.759v3.479h-1.619v-3.009a.859.859,0,0,0-.859-.959,1.042,1.042,0,0,0-.86.429v3.539h-1.619Z" />
      <path
         id="path300"
         d="M390.455,185.254a2.668,2.668,0,0,1-2.719-2.669,2.588,2.588,0,0,1,2.6-2.679,2.535,2.535,0,0,1,2.539,2.739V183h-3.549a1.239,1.239,0,0,0,1.21.969,1.278,1.278,0,0,0,1.02-.43l1.069.89A3.01,3.01,0,0,1,390.455,185.254Zm-1.13-3.179h2.049a1.073,1.073,0,0,0-1.049-.909A1.024,1.024,0,0,0,389.325,182.075Z" />
      <path
         id="path302"
         d="M393.887,180h1.618v1.17c.33-.86.79-1.27,1.4-1.27a1.093,1.093,0,0,1,.54.131v1.389a1.77,1.77,0,0,0-.759-.16,1.428,1.428,0,0,0-1.18.639v3.259h-1.618Z" />
      <path
         id="path304"
         d="M398.307,180h1.618v.84a1.9,1.9,0,0,1,1.63-.92,1.667,1.667,0,0,1,1.709,1.759v3.479h-1.619v-3.009a.859.859,0,0,0-.86-.959,1.042,1.042,0,0,0-.86.429v3.539h-1.618Z" />
      <path
         id="path306"
         d="M406.975,185.254a2.667,2.667,0,0,1-2.719-2.669,2.588,2.588,0,0,1,2.6-2.679,2.536,2.536,0,0,1,2.54,2.739V183h-3.549a1.238,1.238,0,0,0,1.21.969,1.276,1.276,0,0,0,1.019-.43l1.07.89A3.01,3.01,0,0,1,406.975,185.254Zm-1.13-3.179h2.049a1.073,1.073,0,0,0-1.049-.909A1.024,1.024,0,0,0,405.845,182.075Z" />
      <path
         id="path308"
         d="M410.936,181.246h-1V180h1v-1.429l1.619-.33V180h1.379v1.25h-1.379v2c0,.46.179.62.679.62a2.17,2.17,0,0,0,.66-.11v1.31a4.507,4.507,0,0,1-1.11.159c-1.219,0-1.848-.559-1.848-1.659Z" />
    </g>
    <g
       id="g320">
      <path
         id="path312"
         d="M242.535,64.87v-.889a1.537,1.537,0,0,1,1.729-1.679,2.724,2.724,0,0,1,.75.1v.959a2.309,2.309,0,0,0-.6-.08c-.52,0-.749.23-.749.72v.869h1.349v.9h-1.349v4.108h-1.13V65.77h-1.079v-.9Z" />
      <path
         id="path314"
         d="M245.825,63.161a.7.7,0,0,1,1.409,0,.7.7,0,0,1-1.409,0Zm1.27,6.717h-1.13V64.87h1.13Z" />
      <path
         id="path316"
         d="M249.615,69.878h-1.13V62.732l1.13-.19Z" />
      <path
         id="path318"
         d="M253.324,69.978a2.546,2.546,0,0,1-2.549-2.6,2.467,2.467,0,0,1,2.439-2.589,2.4,2.4,0,0,1,2.369,2.579v.28h-3.7a1.529,1.529,0,0,0,1.5,1.369,1.628,1.628,0,0,0,1.189-.469l.74.689A2.9,2.9,0,0,1,253.324,69.978Zm-1.419-3.019h2.608A1.37,1.37,0,0,0,253.2,65.71,1.345,1.345,0,0,0,251.905,66.959Z" />
    </g>
    <g
       id="g328">
      <path
         id="path322"
         d="M288.112,62.882h1.2v5.956h3.728v1.04h-4.928Z" />
      <path
         id="path324"
         d="M292.193,62.882h1.289l2.149,5.786,2.169-5.786h1.239l-2.739,7h-1.389Z" />
      <path
         id="path326"
         d="M301.052,64.391v5.487h-1.11v-7H301.5l2.05,4.237,2.038-4.237h1.559v7h-1.129V64.421l-2.479,4.957Z" />
    </g>
    <g
       id="g338">
      <path
         id="path330"
         d="M341.548,69.208a1.925,1.925,0,0,1-1.539.719,2.4,2.4,0,0,1-2.269-2.548,2.426,2.426,0,0,1,2.339-2.549,1.911,1.911,0,0,1,1.459.66V62.732l1.129-.19v7.336h-1.119Zm-1.2-.23a1.5,1.5,0,0,0,1.189-.55V66.32a1.554,1.554,0,0,0-1.189-.54,1.6,1.6,0,0,0,0,3.2Z" />
      <path
         id="path332"
         d="M343.93,63.161a.7.7,0,0,1,1.409,0,.7.7,0,0,1-1.409,0Zm1.269,6.717H344.07V64.87H345.2Z" />
      <path
         id="path334"
         d="M346.67,68.538a2.882,2.882,0,0,0,1.608.57c.6,0,1.01-.27,1.01-.67,0-.309-.21-.479-.689-.569l-.89-.15c-.97-.18-1.449-.63-1.449-1.379,0-.94.769-1.55,1.938-1.55a3.526,3.526,0,0,1,1.97.6l-.53.74a2.735,2.735,0,0,0-1.509-.48c-.52,0-.859.22-.859.589,0,.32.179.46.709.55l.879.16c1,.19,1.48.65,1.48,1.4a1.835,1.835,0,0,1-2.039,1.63,3.364,3.364,0,0,1-2.159-.68Z" />
      <path
         id="path336"
         d="M351.38,62.732l1.129-.19v4.467l2.079-2.139h1.289l-2.289,2.319,2.429,2.689h-1.45l-2.058-2.309v2.309H351.38Z" />
    </g>
    <g
       id="g346">
      <path
         id="path340"
         d="M428.583,67.968a3.5,3.5,0,0,0,2.349,1.02c.928,0,1.568-.47,1.568-1.109,0-.57-.339-.83-1.269-1l-1.29-.22c-1.209-.219-1.8-.819-1.8-1.778,0-1.26,1.009-2.1,2.579-2.1a4.671,4.671,0,0,1,2.808.91l-.61.9a3.626,3.626,0,0,0-2.238-.81c-.84,0-1.39.42-1.39.989,0,.5.311.76,1.08.88l1.239.22c1.41.24,2.069.859,2.069,1.919,0,1.279-1.14,2.189-2.809,2.189a4.4,4.4,0,0,1-2.938-1.13Z" />
      <path
         id="path342"
         d="M436.771,62.882h1.39l2.708,7H439.58l-.71-1.959h-2.878l-.72,1.959h-1.249Zm1.75,4.1L437.441,64l-1.1,2.978Z" />
      <path
         id="path344"
         d="M441.973,67.968a3.5,3.5,0,0,0,2.348,1.02c.929,0,1.569-.47,1.569-1.109,0-.57-.339-.83-1.269-1l-1.29-.22c-1.209-.219-1.8-.819-1.8-1.778,0-1.26,1.01-2.1,2.579-2.1a4.674,4.674,0,0,1,2.809.91l-.61.9a3.629,3.629,0,0,0-2.239-.81c-.84,0-1.389.42-1.389.989,0,.5.31.76,1.08.88l1.239.22c1.409.24,2.068.859,2.068,1.919,0,1.279-1.139,2.189-2.808,2.189a4.408,4.408,0,0,1-2.939-1.13Z" />
    </g>
    <g
       id="g352">
      <path
         id="path348"
         d="M480.869,62.882H485.9V63.9h-3.827v2h2.638v1h-2.638v2.979h-1.2Z" />
      <path
         id="path350"
         d="M492.007,67.988l.789.76a3.59,3.59,0,1,1,.03-4.737l-.809.8a2.461,2.461,0,1,0-1.879,4.088A2.372,2.372,0,0,0,492.007,67.988Z" />
    </g>
    <g
       id="g362">
      <path
         id="path354"
         d="M524.387,67.968a3.5,3.5,0,0,0,2.348,1.02c.929,0,1.569-.47,1.569-1.109,0-.57-.339-.83-1.269-1l-1.29-.22c-1.209-.219-1.8-.819-1.8-1.778,0-1.26,1.01-2.1,2.579-2.1a4.674,4.674,0,0,1,2.809.91l-.61.9a3.629,3.629,0,0,0-2.239-.81c-.839,0-1.389.42-1.389.989,0,.5.31.76,1.08.88l1.239.22c1.409.24,2.068.859,2.068,1.919,0,1.279-1.139,2.189-2.808,2.189a4.406,4.406,0,0,1-2.939-1.13Z" />
      <path
         id="path356"
         d="M532.575,62.882h1.39l2.708,7h-1.289l-.71-1.959H531.8l-.72,1.959h-1.249Zm1.749,4.1L533.245,64l-1.1,2.978Z" />
      <path
         id="path358"
         d="M535.847,62.882h5.877v1.039H539.4v5.957h-1.2V63.921h-2.348Z" />
      <path
         id="path360"
         d="M543.655,62.882h1.39l2.708,7h-1.289l-.71-1.959h-2.878l-.72,1.959h-1.249Zm1.749,4.1L544.325,64l-1.1,2.978Z" />
    </g>
    <g
       id="g370">
      <path
         id="path364"
         d="M236.75,102.175v6.545c0,3.614,5.3,6.544,11.846,6.544s11.846-2.93,11.846-6.544v-6.545"
         class="cls-3" />
      <path
         id="path366"
         d="M236.75,95.631v6.544c0,3.615,5.3,6.545,11.846,6.545s11.846-2.93,11.846-6.545V95.631"
         class="cls-3" />
      <ellipse
         id="ellipse368"
         ry="6.544"
         rx="11.846"
         cy="95.631"
         cx="248.596"
         class="cls-3" />
    </g>
    <g
       id="g378">
      <path
         id="path372"
         d="M285.792,102.175v6.545c0,3.614,5.3,6.544,11.846,6.544s11.845-2.93,11.845-6.544v-6.545"
         class="cls-3" />
      <path
         id="path374"
         d="M285.792,95.631v6.544c0,3.615,5.3,6.545,11.846,6.545s11.845-2.93,11.845-6.545V95.631"
         class="cls-3" />
      <ellipse
         id="ellipse376"
         ry="6.544"
         rx="11.846"
         cy="95.631"
         cx="297.638"
         class="cls-3" />
    </g>
    <g
       id="g386">
      <path
         id="path380"
         d="M334.834,102.175v6.545c0,3.614,5.3,6.544,11.846,6.544s11.845-2.93,11.845-6.544v-6.545"
         class="cls-3" />
      <path
         id="path382"
         d="M334.834,95.631v6.544c0,3.615,5.3,6.545,11.846,6.545s11.845-2.93,11.845-6.545V95.631"
         class="cls-3" />
      <ellipse
         id="ellipse384"
         ry="6.544"
         rx="11.846"
         cy="95.631"
         cx="346.68"
         class="cls-3" />
    </g>
    <rect
       id="rect388"
       height="121.614"
       width="169.728"
       y="27.242"
       x="23.796"
       class="cls-7" />
    <rect
       id="rect390"
       height="80.912"
       width="141.456"
       y="54.819"
       x="37.932"
       class="cls-8" />
    <g
       id="g424">
      <path
         id="path392"
         d="M39,41.564a3.844,3.844,0,0,0,2.269.929c.739,0,1.189-.3,1.189-.729,0-.41-.24-.6-.919-.73l-1.49-.26a1.853,1.853,0,0,1-1.718-1.869c0-1.359,1.039-2.209,2.778-2.209a4.754,4.754,0,0,1,2.868.92l-.869,1.249a3.343,3.343,0,0,0-2.089-.769c-.68,0-1.069.28-1.069.66,0,.349.229.539.789.629l1.4.24c1.31.23,2,.909,2,1.979,0,1.359-1.159,2.289-2.988,2.289a4.96,4.96,0,0,1-3.028-1.06Z" />
      <path
         id="path394"
         d="M50.279,41.484l1.13,1.069a3.582,3.582,0,1,1,.049-4.507l-1.159,1.1a2.038,2.038,0,0,0-1.679-.929,2.07,2.07,0,1,0,1.659,3.268Z" />
      <path
         id="path396"
         d="M52.852,41.564a3.841,3.841,0,0,0,2.269.929c.739,0,1.189-.3,1.189-.729,0-.41-.24-.6-.92-.73l-1.489-.26a1.854,1.854,0,0,1-1.719-1.869c0-1.359,1.039-2.209,2.778-2.209a4.757,4.757,0,0,1,2.869.92l-.87,1.249a3.34,3.34,0,0,0-2.088-.769c-.68,0-1.07.28-1.07.66,0,.349.23.539.79.629l1.4.24c1.309.23,2,.909,2,1.979,0,1.359-1.159,2.289-2.989,2.289a4.962,4.962,0,0,1-3.028-1.06Z" />
      <path
         id="path398"
         d="M59.012,36.8h1.719v7H59.012Z" />
      <path
         id="path400"
         d="M64.632,41.564a3.844,3.844,0,0,0,2.269.929c.739,0,1.189-.3,1.189-.729,0-.41-.24-.6-.92-.73l-1.489-.26a1.854,1.854,0,0,1-1.719-1.869c0-1.359,1.039-2.209,2.779-2.209a4.754,4.754,0,0,1,2.868.92l-.869,1.249a3.343,3.343,0,0,0-2.089-.769c-.68,0-1.069.28-1.069.66,0,.349.229.539.789.629l1.4.24c1.31.23,2,.909,2,1.979,0,1.359-1.159,2.289-2.988,2.289a4.962,4.962,0,0,1-3.029-1.06Z" />
      <path
         id="path402"
         d="M71.271,39.885h-1v-1.25h1V37.206l1.62-.329v1.758H74.27v1.25H72.891v2c0,.46.18.621.679.621a2.147,2.147,0,0,0,.66-.111V43.7a4.5,4.5,0,0,1-1.109.159c-1.22,0-1.85-.559-1.85-1.659Z" />
      <path
         id="path404"
         d="M77.631,38.555a2.669,2.669,0,1,1-2.689,2.669A2.626,2.626,0,0,1,77.631,38.555Zm1.119,2.669a1.13,1.13,0,1,0-2.229,0,1.128,1.128,0,1,0,2.229,0Z" />
      <path
         id="path406"
         d="M81.362,38.635H82.98v1.17c.331-.86.79-1.27,1.4-1.27a1.111,1.111,0,0,1,.539.131v1.389a1.767,1.767,0,0,0-.759-.16,1.428,1.428,0,0,0-1.18.639v3.259H81.362Z" />
      <path
         id="path408"
         d="M85.442,42.314c0-.95.74-1.5,2.009-1.5a3.354,3.354,0,0,1,1.2.24v-.42c0-.5-.33-.749-1.019-.749a3.835,3.835,0,0,0-1.449.36l-.56-1.13a5.723,5.723,0,0,1,2.369-.56c1.429,0,2.259.71,2.259,1.939v3.3h-1.6v-.45a2.051,2.051,0,0,1-1.429.53A1.6,1.6,0,0,1,85.442,42.314Zm2.279.489a1.756,1.756,0,0,0,.929-.26v-.66a3.91,3.91,0,0,0-.889-.109c-.53,0-.83.18-.83.509S87.221,42.8,87.721,42.8Z" />
      <path
         id="path410"
         d="M91.242,41.184a2.474,2.474,0,0,1,2.4-2.578,1.8,1.8,0,0,1,1.4.649v-.62h1.588v5.227c0,1.39-.959,2.16-2.718,2.16a4.937,4.937,0,0,1-2.139-.46l.5-1.17a3.652,3.652,0,0,0,1.579.4c.77,0,1.17-.32,1.17-.95V43.1a1.936,1.936,0,0,1-1.5.68A2.445,2.445,0,0,1,91.242,41.184Zm2.818,1.28a1.255,1.255,0,0,0,.96-.411V40.335a1.314,1.314,0,0,0-.96-.4,1.206,1.206,0,0,0-1.229,1.259A1.219,1.219,0,0,0,94.06,42.464Z" />
      <path
         id="path412"
         d="M100.38,43.893a2.667,2.667,0,0,1-2.718-2.669,2.587,2.587,0,0,1,2.6-2.678,2.534,2.534,0,0,1,2.538,2.738v.35H99.251a1.237,1.237,0,0,0,1.209.969,1.279,1.279,0,0,0,1.02-.429l1.069.889A3,3,0,0,1,100.38,43.893Zm-1.129-3.178H101.3a1.073,1.073,0,0,0-1.05-.91A1.024,1.024,0,0,0,99.251,40.715Z" />
      <path
         id="path414"
         d="M108.081,36.8h1.959l2.688,7h-1.859l-.579-1.669h-2.559l-.59,1.669h-1.789Zm1.749,4-.81-2.318-.819,2.318Z" />
      <path
         id="path416"
         d="M113.382,38.635H115v1.17c.331-.86.791-1.27,1.4-1.27a1.111,1.111,0,0,1,.539.131v1.389a1.767,1.767,0,0,0-.759-.16,1.428,1.428,0,0,0-1.18.639v3.259h-1.618Z" />
      <path
         id="path418"
         d="M117.8,38.635h1.618v1.17c.33-.86.79-1.27,1.4-1.27a1.111,1.111,0,0,1,.539.131v1.389a1.767,1.767,0,0,0-.759-.16,1.428,1.428,0,0,0-1.18.639v3.259H117.8Z" />
      <path
         id="path420"
         d="M121.881,42.314c0-.95.74-1.5,2.009-1.5a3.359,3.359,0,0,1,1.2.24v-.42c0-.5-.33-.749-1.02-.749a3.844,3.844,0,0,0-1.449.36l-.559-1.13a5.715,5.715,0,0,1,2.368-.56c1.429,0,2.259.71,2.259,1.939v3.3h-1.6v-.45a2.054,2.054,0,0,1-1.429.53A1.606,1.606,0,0,1,121.881,42.314Zm2.279.489a1.762,1.762,0,0,0,.93-.26v-.66a3.926,3.926,0,0,0-.89-.109c-.53,0-.829.18-.829.509S123.661,42.8,124.16,42.8Z" />
      <path
         id="path422"
         d="M129.1,43.893l-1.9-5.258h1.789l1.029,3.329,1.179-3.329h1.749l-2.318,5.757A2.125,2.125,0,0,1,128.371,46a3.369,3.369,0,0,1-.67-.08v-1.36a3.428,3.428,0,0,0,.48.04.791.791,0,0,0,.84-.519Z" />
    </g>
    <g
       id="g434">
      <path
         id="path426"
         d="M98.13,67.968a3.5,3.5,0,0,0,2.349,1.02c.929,0,1.568-.47,1.568-1.109,0-.57-.339-.83-1.269-1l-1.289-.22c-1.209-.219-1.8-.819-1.8-1.778,0-1.26,1.009-2.1,2.579-2.1a4.671,4.671,0,0,1,2.808.91l-.61.9a3.626,3.626,0,0,0-2.238-.81c-.84,0-1.39.42-1.39.989,0,.5.31.76,1.08.88l1.239.22c1.409.24,2.069.859,2.069,1.919,0,1.279-1.14,2.189-2.809,2.189a4.406,4.406,0,0,1-2.938-1.13Z" />
      <path
         id="path428"
         d="M109.647,67.988l.79.76a3.59,3.59,0,1,1,.03-4.737l-.81.8a2.461,2.461,0,1,0-1.879,4.088A2.371,2.371,0,0,0,109.647,67.988Z" />
      <path
         id="path430"
         d="M111.83,67.968a3.5,3.5,0,0,0,2.348,1.02c.929,0,1.569-.47,1.569-1.109,0-.57-.339-.83-1.269-1l-1.29-.22c-1.209-.219-1.8-.819-1.8-1.778,0-1.26,1.009-2.1,2.578-2.1a4.672,4.672,0,0,1,2.809.91l-.61.9a3.629,3.629,0,0,0-2.239-.81c-.839,0-1.389.42-1.389.989,0,.5.31.76,1.08.88l1.239.22c1.409.24,2.069.859,2.069,1.919,0,1.279-1.14,2.189-2.809,2.189a4.4,4.4,0,0,1-2.938-1.13Z" />
      <path
         id="path432"
         d="M118.09,62.882h1.2v7h-1.2Z" />
    </g>
    <g
       id="g456">
      <path
         id="path436"
         d="M79.841,283.635a3.5,3.5,0,0,0,2.348,1.02c.93,0,1.569-.47,1.569-1.109,0-.57-.339-.83-1.269-1l-1.289-.22c-1.209-.219-1.8-.819-1.8-1.778,0-1.26,1.009-2.1,2.578-2.1a4.672,4.672,0,0,1,2.809.91l-.61.9a3.626,3.626,0,0,0-2.239-.81c-.839,0-1.389.42-1.389.989,0,.5.31.76,1.08.88l1.239.22c1.409.24,2.069.859,2.069,1.919,0,1.279-1.14,2.189-2.809,2.189a4.406,4.406,0,0,1-2.938-1.13Z" />
      <path
         id="path438"
         d="M91.358,283.655l.789.76a3.59,3.59,0,1,1,.031-4.737l-.81.8a2.461,2.461,0,1,0-1.879,4.088A2.371,2.371,0,0,0,91.358,283.655Z" />
      <path
         id="path440"
         d="M93.541,283.635a3.5,3.5,0,0,0,2.348,1.02c.929,0,1.569-.47,1.569-1.109,0-.57-.339-.83-1.269-1l-1.29-.22c-1.209-.219-1.8-.819-1.8-1.778,0-1.26,1.009-2.1,2.578-2.1a4.672,4.672,0,0,1,2.809.91l-.61.9a3.629,3.629,0,0,0-2.239-.81c-.839,0-1.389.42-1.389.989,0,.5.31.76,1.08.88l1.239.22c1.409.24,2.069.859,2.069,1.919,0,1.279-1.14,2.189-2.809,2.189a4.4,4.4,0,0,1-2.938-1.13Z" />
      <path
         id="path442"
         d="M99.8,278.549H101v7H99.8Z" />
      <path
         id="path444"
         d="M104.83,278.549h1.2V281.5h3.478v-2.948h1.2v7h-1.2v-3h-3.478v3h-1.2Z" />
      <path
         id="path446"
         d="M115.448,278.549c1.32,0,2.209.739,2.209,1.838a1.678,1.678,0,0,1-1.119,1.55A1.749,1.749,0,0,1,117.9,283.6a2.041,2.041,0,0,1-2.309,1.949H112.34v-7Zm-1.908.979v1.959h1.789c.689,0,1.129-.38,1.129-.979s-.44-.98-1.129-.98Zm3.148,3.958a1.092,1.092,0,0,0-1.24-1.07H113.54v2.149h1.908A1.1,1.1,0,0,0,116.688,283.486Z" />
      <path
         id="path448"
         d="M121.139,278.549h1.389l2.709,7h-1.29l-.709-1.959h-2.879l-.719,1.959h-1.249Zm1.749,4.1-1.079-2.978-1.1,2.978Z" />
      <path
         id="path450"
         d="M128.409,278.439l.6.719a4.878,4.878,0,0,0,0,7.876l-.6.729a5.7,5.7,0,0,1,0-9.324Z" />
      <path
         id="path452"
         d="M130.22,284.205a2.885,2.885,0,0,0,1.609.57c.6,0,1.009-.27,1.009-.67,0-.309-.209-.479-.689-.569l-.89-.15c-.969-.18-1.449-.63-1.449-1.379,0-.94.77-1.55,1.939-1.55a3.52,3.52,0,0,1,1.969.6l-.53.74a2.735,2.735,0,0,0-1.509-.48c-.519,0-.859.22-.859.589,0,.32.18.46.709.55l.88.16c1,.19,1.479.65,1.479,1.4a1.835,1.835,0,0,1-2.039,1.63,3.364,3.364,0,0,1-2.159-.68Z" />
      <path
         id="path454"
         d="M135.26,287.763l-.6-.719a4.878,4.878,0,0,0,0-7.876l.6-.729a5.7,5.7,0,0,1,0,9.324Z" />
    </g>
    <g
       id="g474">
      <path
         id="path458"
         d="M273.377,238.5l3.648,5.077-.02-5.077h1.129v7h-1.069l-3.748-5.217.02,5.217h-1.129v-7Z" />
      <path
         id="path460"
         d="M279.758,238.5h1.2v7h-1.2Z" />
      <path
         id="path462"
         d="M287.785,243.6l.789.76a3.591,3.591,0,1,1,.03-4.737l-.809.8a2.461,2.461,0,1,0-1.879,4.088A2.371,2.371,0,0,0,287.785,243.6Z" />
      <path
         id="path464"
         d="M294.216,240.4a2.595,2.595,0,1,1-2.519,2.589A2.5,2.5,0,0,1,294.216,240.4Zm1.4,2.6a1.415,1.415,0,1,0-2.8,0,1.413,1.413,0,1,0,2.8,0Z" />
      <path
         id="path466"
         d="M297.907,240.484h1.13v1.089a1.485,1.485,0,0,1,1.379-1.179,1.338,1.338,0,0,1,.489.1v.99a1.585,1.585,0,0,0-.619-.121,1.374,1.374,0,0,0-1.249.83v3.3h-1.13Z" />
      <path
         id="path468"
         d="M303.638,238.5h5.877v1.04h-2.329v5.956h-1.2v-5.956h-2.348Z" />
      <path
         id="path470"
         d="M313.445,245.6a3.609,3.609,0,1,1,3.538-3.608A3.542,3.542,0,0,1,313.445,245.6Zm.011-6.146a2.545,2.545,0,1,0,2.3,2.538A2.394,2.394,0,0,0,313.456,239.455Z" />
      <path
         id="path472"
         d="M318.337,238.5h5.008v1.02h-3.808v1.949H322.2v1h-2.658v2.009h3.848v1.019h-5.048Z" />
    </g>
    <g
       id="g486">
      <path
         id="path476"
         d="M285.518,278.828a.7.7,0,0,1,1.409,0,.7.7,0,0,1-1.409,0Zm1.269,6.717h-1.129v-5.008h1.129Z" />
      <path
         id="path478"
         d="M288.368,283.635a3.5,3.5,0,0,0,2.348,1.02c.93,0,1.569-.47,1.569-1.109,0-.57-.339-.83-1.269-1l-1.289-.22c-1.209-.219-1.8-.819-1.8-1.778,0-1.26,1.009-2.1,2.578-2.1a4.672,4.672,0,0,1,2.809.91l-.61.9a3.629,3.629,0,0,0-2.239-.81c-.839,0-1.389.42-1.389.989,0,.5.31.76,1.08.88l1.239.22c1.409.24,2.069.859,2.069,1.919,0,1.279-1.14,2.189-2.809,2.189a4.4,4.4,0,0,1-2.938-1.13Z" />
      <path
         id="path480"
         d="M299.885,283.655l.79.76a3.59,3.59,0,1,1,.03-4.737l-.809.8a2.462,2.462,0,1,0-1.88,4.088A2.371,2.371,0,0,0,299.885,283.655Z" />
      <path
         id="path482"
         d="M302.067,283.635a3.5,3.5,0,0,0,2.349,1.02c.93,0,1.569-.47,1.569-1.109,0-.57-.339-.83-1.269-1l-1.289-.22c-1.209-.219-1.8-.819-1.8-1.778,0-1.26,1.009-2.1,2.578-2.1a4.672,4.672,0,0,1,2.809.91l-.61.9a3.629,3.629,0,0,0-2.239-.81c-.839,0-1.389.42-1.389.989,0,.5.31.76,1.079.88l1.24.22c1.409.24,2.069.859,2.069,1.919,0,1.279-1.14,2.189-2.809,2.189a4.406,4.406,0,0,1-2.938-1.13Z" />
      <path
         id="path484"
         d="M308.328,278.549h1.2v7h-1.2Z" />
    </g>
    <g
       id="g504">
      <path
         id="path488"
         d="M462.74,278.828a.7.7,0,0,1,1.409,0,.7.7,0,0,1-1.409,0Zm1.27,6.717h-1.13v-5.008h1.13Z" />
      <path
         id="path490"
         d="M465.59,283.635a3.5,3.5,0,0,0,2.348,1.02c.93,0,1.57-.47,1.57-1.109,0-.57-.34-.83-1.27-1l-1.289-.22c-1.209-.219-1.8-.819-1.8-1.778,0-1.26,1.009-2.1,2.579-2.1a4.671,4.671,0,0,1,2.808.91l-.609.9a3.629,3.629,0,0,0-2.24-.81c-.838,0-1.388.42-1.388.989,0,.5.309.76,1.079.88l1.239.22c1.409.24,2.07.859,2.07,1.919,0,1.279-1.14,2.189-2.809,2.189a4.406,4.406,0,0,1-2.939-1.13Z" />
      <path
         id="path492"
         d="M477.107,283.655l.789.76a3.59,3.59,0,1,1,.031-4.737l-.81.8a2.461,2.461,0,1,0-1.879,4.088A2.369,2.369,0,0,0,477.107,283.655Z" />
      <path
         id="path494"
         d="M479.29,283.635a3.5,3.5,0,0,0,2.349,1.02c.928,0,1.568-.47,1.568-1.109,0-.57-.339-.83-1.269-1l-1.29-.22c-1.209-.219-1.8-.819-1.8-1.778,0-1.26,1.009-2.1,2.579-2.1a4.669,4.669,0,0,1,2.808.91l-.61.9a3.626,3.626,0,0,0-2.238-.81c-.84,0-1.39.42-1.39.989,0,.5.311.76,1.08.88l1.239.22c1.41.24,2.069.859,2.069,1.919,0,1.279-1.14,2.189-2.809,2.189a4.4,4.4,0,0,1-2.938-1.13Z" />
      <path
         id="path496"
         d="M485.55,278.549h1.2v7h-1.2Z" />
      <path
         id="path498"
         d="M490.579,278.549h1.2V281.5h3.479v-2.948h1.2v7h-1.2v-3h-3.479v3h-1.2Z" />
      <path
         id="path500"
         d="M501.2,278.549c1.32,0,2.209.739,2.209,1.838a1.677,1.677,0,0,1-1.119,1.55,1.749,1.749,0,0,1,1.359,1.659,2.04,2.04,0,0,1-2.308,1.949h-3.249v-7Zm-1.908.979v1.959h1.789c.69,0,1.129-.38,1.129-.979s-.439-.98-1.129-.98Zm3.148,3.958a1.092,1.092,0,0,0-1.24-1.07h-1.908v2.149H501.2A1.1,1.1,0,0,0,502.437,283.486Z" />
      <path
         id="path502"
         d="M506.889,278.549h1.388l2.709,7H509.7l-.709-1.959h-2.879l-.719,1.959H504.14Zm1.749,4.1-1.08-2.978-1.1,2.978Z" />
    </g>
    <g
       id="g514">
      <path
         id="path506"
         d="M60.5,329.669a3.5,3.5,0,0,0,2.348,1.019c.929,0,1.569-.47,1.569-1.109,0-.57-.339-.83-1.269-1l-1.29-.219c-1.209-.22-1.8-.82-1.8-1.779,0-1.26,1.009-2.1,2.578-2.1a4.671,4.671,0,0,1,2.809.909l-.61.9a3.629,3.629,0,0,0-2.239-.81c-.839,0-1.389.42-1.389.989,0,.5.31.76,1.08.88l1.239.22c1.409.24,2.069.859,2.069,1.919,0,1.279-1.14,2.189-2.809,2.189a4.408,4.408,0,0,1-2.938-1.129Z" />
      <path
         id="path508"
         d="M72.017,329.689l.789.759a3.59,3.59,0,1,1,.03-4.737l-.809.8a2.461,2.461,0,1,0-1.88,4.088A2.372,2.372,0,0,0,72.017,329.689Z" />
      <path
         id="path510"
         d="M74.2,329.669a3.5,3.5,0,0,0,2.349,1.019c.929,0,1.569-.47,1.569-1.109,0-.57-.34-.83-1.269-1l-1.29-.219c-1.209-.22-1.8-.82-1.8-1.779,0-1.26,1.01-2.1,2.579-2.1a4.668,4.668,0,0,1,2.808.909l-.609.9a3.629,3.629,0,0,0-2.239-.81c-.84,0-1.389.42-1.389.989,0,.5.31.76,1.079.88l1.24.22c1.409.24,2.068.859,2.068,1.919,0,1.279-1.139,2.189-2.808,2.189a4.41,4.41,0,0,1-2.939-1.129Z" />
      <path
         id="path512"
         d="M80.459,324.582h1.2v7h-1.2Z" />
    </g>
    <g
       id="g524">
      <path
         id="path516"
         d="M69.7,228a3.5,3.5,0,0,0,2.348,1.02c.929,0,1.569-.47,1.569-1.11,0-.569-.339-.829-1.269-1l-1.289-.22c-1.209-.22-1.8-.819-1.8-1.779,0-1.259,1.009-2.1,2.578-2.1a4.672,4.672,0,0,1,2.809.91l-.61.9a3.633,3.633,0,0,0-2.239-.809c-.839,0-1.389.42-1.389.989,0,.5.31.76,1.08.88l1.239.22c1.409.239,2.069.859,2.069,1.919,0,1.279-1.14,2.189-2.809,2.189a4.4,4.4,0,0,1-2.938-1.13Z" />
      <path
         id="path518"
         d="M81.22,228.016l.789.76a3.591,3.591,0,1,1,.031-4.737l-.81.8a2.461,2.461,0,1,0-1.879,4.088A2.371,2.371,0,0,0,81.22,228.016Z" />
      <path
         id="path520"
         d="M83.4,228a3.5,3.5,0,0,0,2.349,1.02c.929,0,1.569-.47,1.569-1.11,0-.569-.34-.829-1.269-1l-1.29-.22c-1.209-.22-1.8-.819-1.8-1.779,0-1.259,1.01-2.1,2.579-2.1a4.674,4.674,0,0,1,2.809.91l-.61.9a3.633,3.633,0,0,0-2.239-.809c-.839,0-1.389.42-1.389.989,0,.5.31.76,1.079.88l1.24.22c1.409.239,2.069.859,2.069,1.919,0,1.279-1.14,2.189-2.809,2.189a4.406,4.406,0,0,1-2.939-1.13Z" />
      <path
         id="path522"
         d="M89.663,222.909h1.2v7h-1.2Z" />
    </g>
    <g
       id="g530">
      <path
         id="path526"
         d="M150.5,330.238a2.882,2.882,0,0,0,1.609.57c.6,0,1.009-.27,1.009-.67,0-.309-.209-.479-.689-.569l-.89-.15c-.969-.18-1.449-.63-1.449-1.379,0-.94.769-1.55,1.939-1.55a3.518,3.518,0,0,1,1.969.6l-.53.739a2.735,2.735,0,0,0-1.509-.48c-.52,0-.859.22-.859.59,0,.319.179.46.709.549l.879.161c1,.19,1.48.649,1.48,1.4a1.835,1.835,0,0,1-2.039,1.629,3.358,3.358,0,0,1-2.159-.68Z" />
      <path
         id="path528"
         d="M158.841,330.908a1.928,1.928,0,0,1-1.54.72,2.562,2.562,0,0,1,.071-5.1,1.914,1.914,0,0,1,1.459.66v-2.758l1.129-.19v7.336h-1.119Zm-1.2-.23a1.5,1.5,0,0,0,1.19-.549V328.02a1.554,1.554,0,0,0-1.19-.54,1.6,1.6,0,0,0,0,3.2Z" />
    </g>
    <g
       id="g536">
      <path
         id="path532"
         d="M121.014,325.536v6.544c0,3.614,5.3,6.544,11.845,6.544s11.846-2.93,11.846-6.544v-6.544"
         class="cls-3" />
      <ellipse
         id="ellipse534"
         ry="6.544"
         rx="11.846"
         cy="325.536"
         cx="132.859"
         class="cls-3" />
    </g>
    <rect
       id="rect538"
       height="39.346"
       width="141.456"
       y="309.135"
       x="226.91"
       class="cls-6" />
    <rect
       id="rect540"
       height="31.593"
       width="73.291"
       y="313.011"
       x="291.471"
       class="cls-6" />
    <g
       id="g550">
      <path
         id="path542"
         d="M249.477,329.669a3.5,3.5,0,0,0,2.349,1.019c.929,0,1.569-.47,1.569-1.109,0-.57-.34-.83-1.27-1l-1.289-.219c-1.209-.22-1.8-.82-1.8-1.779,0-1.26,1.009-2.1,2.579-2.1a4.668,4.668,0,0,1,2.808.909l-.61.9a3.626,3.626,0,0,0-2.238-.81c-.84,0-1.389.42-1.389.989,0,.5.31.76,1.079.88l1.239.22c1.41.24,2.069.859,2.069,1.919,0,1.279-1.139,2.189-2.808,2.189a4.412,4.412,0,0,1-2.939-1.129Z" />
      <path
         id="path544"
         d="M260.994,329.689l.79.759a3.59,3.59,0,1,1,.03-4.737l-.81.8a2.461,2.461,0,1,0-1.879,4.088A2.368,2.368,0,0,0,260.994,329.689Z" />
      <path
         id="path546"
         d="M263.177,329.669a3.5,3.5,0,0,0,2.348,1.019c.93,0,1.569-.47,1.569-1.109,0-.57-.339-.83-1.269-1l-1.289-.219c-1.209-.22-1.8-.82-1.8-1.779,0-1.26,1.009-2.1,2.578-2.1a4.671,4.671,0,0,1,2.809.909l-.61.9a3.629,3.629,0,0,0-2.239-.81c-.839,0-1.389.42-1.389.989,0,.5.31.76,1.08.88l1.239.22c1.409.24,2.069.859,2.069,1.919,0,1.279-1.14,2.189-2.809,2.189a4.41,4.41,0,0,1-2.938-1.129Z" />
      <path
         id="path548"
         d="M269.437,324.582h1.2v7h-1.2Z" />
    </g>
    <g
       id="g556">
      <path
         id="path552"
         d="M339.48,330.238a2.885,2.885,0,0,0,1.609.57c.6,0,1.01-.27,1.01-.67,0-.309-.21-.479-.69-.569l-.889-.15c-.97-.18-1.45-.63-1.45-1.379,0-.94.77-1.55,1.939-1.55a3.519,3.519,0,0,1,1.97.6l-.531.739a2.733,2.733,0,0,0-1.509-.48c-.519,0-.859.22-.859.59,0,.319.18.46.709.549l.88.161c1,.19,1.479.649,1.479,1.4a1.835,1.835,0,0,1-2.039,1.629,3.358,3.358,0,0,1-2.159-.68Z" />
      <path
         id="path554"
         d="M347.818,330.908a1.928,1.928,0,0,1-1.54.72,2.562,2.562,0,0,1,.071-5.1,1.913,1.913,0,0,1,1.459.66v-2.758l1.13-.19v7.336h-1.12Zm-1.2-.23a1.5,1.5,0,0,0,1.19-.549V328.02a1.553,1.553,0,0,0-1.19-.54,1.6,1.6,0,0,0,0,3.2Z" />
    </g>
    <g
       id="g562">
      <path
         id="path558"
         d="M309.991,325.536v6.544c0,3.614,5.3,6.544,11.846,6.544s11.845-2.93,11.845-6.544v-6.544"
         class="cls-3" />
      <ellipse
         id="ellipse560"
         ry="6.544"
         rx="11.846"
         cy="325.536"
         cx="321.837"
         class="cls-3" />
    </g>
    <rect
       id="rect564"
       height="39.346"
       width="141.456"
       y="309.135"
       x="416.542"
       class="cls-6" />
    <rect
       id="rect566"
       height="31.593"
       width="73.291"
       y="313.011"
       x="481.103"
       class="cls-6" />
    <g
       id="g576">
      <path
         id="path568"
         d="M439.109,329.669a3.5,3.5,0,0,0,2.349,1.019c.929,0,1.568-.47,1.568-1.109,0-.57-.338-.83-1.268-1l-1.29-.219c-1.209-.22-1.8-.82-1.8-1.779,0-1.26,1.01-2.1,2.579-2.1a4.673,4.673,0,0,1,2.809.909l-.611.9a3.626,3.626,0,0,0-2.238-.81c-.84,0-1.39.42-1.39.989,0,.5.311.76,1.08.88l1.24.22c1.409.24,2.068.859,2.068,1.919,0,1.279-1.14,2.189-2.809,2.189a4.411,4.411,0,0,1-2.938-1.129Z" />
      <path
         id="path570"
         d="M450.626,329.689l.79.759a3.59,3.59,0,1,1,.03-4.737l-.809.8a2.461,2.461,0,1,0-1.88,4.088A2.37,2.37,0,0,0,450.626,329.689Z" />
      <path
         id="path572"
         d="M452.809,329.669a3.5,3.5,0,0,0,2.348,1.019c.93,0,1.57-.47,1.57-1.109,0-.57-.34-.83-1.27-1l-1.289-.219c-1.209-.22-1.8-.82-1.8-1.779,0-1.26,1.009-2.1,2.578-2.1a4.671,4.671,0,0,1,2.809.909l-.61.9a3.626,3.626,0,0,0-2.239-.81c-.839,0-1.388.42-1.388.989,0,.5.309.76,1.079.88l1.239.22c1.409.24,2.069.859,2.069,1.919,0,1.279-1.139,2.189-2.808,2.189a4.41,4.41,0,0,1-2.939-1.129Z" />
      <path
         id="path574"
         d="M459.069,324.582h1.2v7h-1.2Z" />
    </g>
    <g
       id="g582">
      <path
         id="path578"
         d="M529.112,330.238a2.887,2.887,0,0,0,1.61.57c.6,0,1.008-.27,1.008-.67,0-.309-.209-.479-.689-.569l-.89-.15c-.968-.18-1.449-.63-1.449-1.379,0-.94.77-1.55,1.94-1.55a3.513,3.513,0,0,1,1.968.6l-.529.739a2.738,2.738,0,0,0-1.51-.48c-.519,0-.859.22-.859.59,0,.319.18.46.71.549l.879.161c1,.19,1.479.649,1.479,1.4a1.835,1.835,0,0,1-2.039,1.629,3.355,3.355,0,0,1-2.158-.68Z" />
      <path
         id="path580"
         d="M537.45,330.908a1.925,1.925,0,0,1-1.539.72,2.562,2.562,0,0,1,.07-5.1,1.913,1.913,0,0,1,1.459.66v-2.758l1.129-.19v7.336H537.45Zm-1.2-.23a1.5,1.5,0,0,0,1.189-.549V328.02a1.552,1.552,0,0,0-1.189-.54,1.6,1.6,0,0,0,0,3.2Z" />
    </g>
    <g
       id="g588">
      <path
         id="path584"
         d="M499.623,325.536v6.544c0,3.614,5.3,6.544,11.846,6.544s11.845-2.93,11.845-6.544v-6.544"
         class="cls-3" />
      <ellipse
         id="ellipse586"
         ry="6.544"
         rx="11.846"
         cy="325.536"
         cx="511.469"
         class="cls-3" />
    </g>
    <g
       id="g594">
      <path
         id="path590"
         d="M68.387,239.449v6.545c0,3.614,5.3,6.544,11.846,6.544s11.846-2.93,11.846-6.544v-6.545"
         class="cls-3" />
      <ellipse
         id="ellipse592"
         ry="6.544"
         rx="11.846"
         cy="239.449"
         cx="80.233"
         class="cls-3" />
    </g>
    <g
       id="g620">
      <g
         id="g600">
        <path
           id="path596"
           d="M68.387,86.4v6.544c0,3.614,5.3,6.544,11.846,6.544s11.846-2.93,11.846-6.544V86.4"
           class="cls-3" />
        <ellipse
           id="ellipse598"
           ry="6.544"
           rx="11.846"
           cy="86.395"
           cx="80.233"
           class="cls-3" />
      </g>
      <g
         id="g606">
        <path
           id="path602"
           d="M125.242,86.4v6.544c0,3.614,5.3,6.544,11.846,6.544s11.846-2.93,11.846-6.544V86.4"
           class="cls-3" />
        <ellipse
           id="ellipse604"
           ry="6.544"
           rx="11.846"
           cy="86.395"
           cx="137.088"
           class="cls-3" />
      </g>
      <g
         id="g612">
        <path
           id="path608"
           d="M68.387,111.412v6.544c0,3.614,5.3,6.544,11.846,6.544s11.846-2.93,11.846-6.544v-6.544"
           class="cls-3" />
        <ellipse
           id="ellipse610"
           ry="6.544"
           rx="11.846"
           cy="111.412"
           cx="80.233"
           class="cls-3" />
      </g>
      <g
         id="g618">
        <path
           id="path614"
           d="M125.242,111.412v6.544c0,3.614,5.3,6.544,11.846,6.544s11.846-2.93,11.846-6.544v-6.544"
           class="cls-3" />
        <ellipse
           id="ellipse616"
           ry="6.544"
           rx="11.846"
           cy="111.412"
           cx="137.088"
           class="cls-3" />
      </g>
    </g>
    <line
       id="line622"
       y2="269.082"
       x2="137.088"
       y1="148.856"
       x1="137.088"
       class="cls-9" />
    <line
       id="line624"
       y2="269.082"
       x2="80.233"
       y1="253.483"
       x1="80.233"
       class="cls-9" />
    <line
       id="line626"
       y2="229.029"
       x2="297.638"
       y1="200.714"
       x1="297.638"
       class="cls-10" />
    <line
       id="line628"
       y2="164.046"
       x2="297.638"
       y1="148.856"
       x1="297.638"
       class="cls-10" />
    <line
       id="line630"
       y2="269.082"
       x2="487.27"
       y1="200.714"
       x1="487.27"
       class="cls-10" />
    <line
       id="line632"
       y2="164.046"
       x2="487.27"
       y1="148.856"
       x1="487.27"
       class="cls-10" />
  </g>
</svg>
